<svg id="Layer_1" data-name="Layer 1" xmlns="http://www.w3.org/2000/svg" viewBox="0 0 114.01 16.23"><title>BloodMary1</title><path d="M10.34,16.41a.05.05,0,0,0,0,.11l-.07.05-.38.32q-.2.15-.49.34l-.05,0-.25.17c-.11.08-.16.13-.16.15l.4-.14.07.05-.22.18-1,.49a.15.15,0,0,1,0-.11l0-.05-.2.16,0,.09-.25.13-.35,0-.35.05-.3,0-.14,0H5.93l-.47-.13a.15.15,0,0,0-.11,0,.08.08,0,0,1-.09-.05L4.58,18l-1.14-.2a.42.42,0,0,0-.19.11L3.08,18,3,18.17a.05.05,0,0,0,0,0l-.05.09A.44.44,0,0,0,2.81,18a1.06,1.06,0,0,1-.21-.37l-.16-.89a4.88,4.88,0,0,1-.12-.62,4.45,4.45,0,0,1,0-.45l-.05-.16.05-.36a2.16,2.16,0,0,0,.09-.73V13a1,1,0,0,0-.07-.34,1.13,1.13,0,0,1-.07-.23v-.13l-.05,0a.36.36,0,0,0,.11-.2l.16-.29V11.7l-.16-.09.16-.09V10.09c0-.13,0-.21,0-.24V9.59a.57.57,0,0,0-.08-.23.66.66,0,0,1-.08-.19h.13L2.6,8.3s0-.05,0-.12A.77.77,0,0,1,2.68,8l.07-.29V7.45a1.1,1.1,0,0,1,.1-.37,4.37,4.37,0,0,0,.08-1.26V5.72H2.39a.05.05,0,0,0,0,0l.14-.2H2.42a.49.49,0,0,0,.13-.18l.13-.18,0-.2,0-.05a.05.05,0,0,1,0,0H2.68a8.15,8.15,0,0,1,3.91-.33h.58l.25.05.25.05V4.56a1.14,1.14,0,0,1,.42.15l.22.07L8.66,5l.58.32.55.32q.25.15.25.18l.05.07V6l.07.09a.06.06,0,0,0,.07.07.25.25,0,0,0,.18-.07.11.11,0,0,1,0,.07s0,0,0,.05l0,.07a.42.42,0,0,0,.12.24l.17.2.27.53q.07.24.16.6a2.79,2.79,0,0,1,.09.67l.07-.11V9a1.12,1.12,0,0,1-.07.23.85.85,0,0,1-.11.23l-.05,0,.09.09.15-.09a.87.87,0,0,0-.15.31L11,10a.74.74,0,0,0,0,.1.77.77,0,0,1,0,.1l0,.09a1.17,1.17,0,0,1-.19.25.33.33,0,0,0-.12.21.56.56,0,0,1-.12.2c-.05.06-.09.09-.1.09s0,.07,0,.09l.71.44q.09.09.09.11l.25.22a.1.1,0,0,1,0,.07.2.2,0,0,1-.1,0l-.12-.08h-.16a.07.07,0,0,0,0,.05l.05.07s0,.06.13.12.13.1.13.14v.11a1.75,1.75,0,0,0,.06.34,4.1,4.1,0,0,0,.15.49l.13.22a.43.43,0,0,0,0,.12.43.43,0,0,1,0,.12l0,.69-.09,0,.09.05a.28.28,0,0,1-.05.2l0,.05v-.16H11.6a1.66,1.66,0,0,1,0,.24.54.54,0,0,1-.07.22l-.09.13a.07.07,0,0,0,0,.05l0,.05a.6.6,0,0,1,0,.11.3.3,0,0,1-.06.13l0,.16-.13.18-.12.15-.13.15-.08.09-.38.33ZM2.28,9c.06,0,.09,0,.09.05S2.32,9.06,2.28,9Zm0,1.51q.09,0,.09,0s0,.05-.09.05Zm2.31,6.63a.1.1,0,0,0,0,.07l.16.25a.44.44,0,0,0,.14.09c.05,0,.08,0,.08.05l.16,0h.16l.13,0,.14-.24s0,0-.11-.07l-.24-.13q0,.09-.11.09H5l0-.07h-.2s0,0-.05,0l-.13-.11ZM4.75,17s0,.06.07.07l.18.07.25,0-.09-.07L5.33,17H5.09L5.15,17a0,0,0,0,1-.05-.05L5,16.9a.35.35,0,0,1-.25-.07H4.62ZM8,13.48H7.84l-.05-.09a.06.06,0,0,0,0,0L7.6,13.3a.31.31,0,0,1-.15,0,.39.39,0,0,0-.19,0l-.4,0a1.42,1.42,0,0,0-.42.13l-.11,0-.14.13-.13.34v-.33L6,13.63H5.93s0,0,0,0,0,0,0,0H5.75a.12.12,0,0,1-.08.05.11.11,0,0,0-.08.07l-.11.42V14c-.06,0-.11.13-.15.38a5,5,0,0,0-.06.82l-.11.73s-.07-.05-.1-.12a.42.42,0,0,1,0-.14l-.09,0a.28.28,0,0,1,0,.11l0,.38s-.07.08-.07.09l0,.11a.22.22,0,0,0,0,.08.23.23,0,0,1,0,.08l-.11.09a.19.19,0,0,0,.11.14.88.88,0,0,0,.23.07l.26,0h.22v-.09q0-.16.22-.16s-.05,0-.05,0l0,0,0,0,0,0-.05,0v-.09h.16l.12,0,.2,0,.17,0,.09,0h.49l-.11,0-.23-.09-.23-.07-.13-.05a3.49,3.49,0,0,1,.59,0l.37,0H8.44v.07h.13l.11,0,.09,0h.09v.07h.22l.36-.09.2-.33a.42.42,0,0,0,.1-.23,1.56,1.56,0,0,0,0-.26V15a.3.3,0,0,1,0-.14.29.29,0,0,0,0-.12.25.25,0,0,0,0-.13.24.24,0,0,1,0-.11v-.2L9.6,13.9l0-.09-.13,0,.09-.11-.27-.24-.08,0a.2.2,0,0,0-.1,0l-.22-.2-.05,0-.2,0s-.05,0-.05.14l-.15-.09v.18a.76.76,0,0,1-.21-.09l-.34-.2-.09.05.25.18.14.09a.17.17,0,0,1,.08.11l-.13.09-.09,0,.09-.05q-.11,0-.13-.07ZM4.91,16.06a.14.14,0,0,1,.08,0s0,0,0,.05,0,.09,0,.09-.05,0-.05-.09l-.05,0Zm.42,1.36a.18.18,0,0,1,.13.05v.09H5.33Zm.16-1s0,.07,0,.07Zm.09.75v-.07H5.49Zm0-.25s-.05,0-.05.07a0,0,0,0,0,.05.05s0,0,0-.05Zm2.18-6.18s0,0,.09.07l.21.07.25.05.18,0,.07-.05-.25-.13a1.49,1.49,0,0,1-.38-.13h.25l.25,0c.12,0,.18,0,.19.06l.05,0,.09,0A.29.29,0,0,0,9,10.65a1.22,1.22,0,0,0,.18-.21l.14-.22a.37.37,0,0,0,.05-.14V10a.39.39,0,0,1,0-.08.42.42,0,0,0,0-.08.25.25,0,0,0,0-.05.28.28,0,0,1,0-.07V9.63a.87.87,0,0,0-.05-.25c0-.11-.07-.16-.09-.16L9,8.79,8.76,8.5l-.09-.05A2.88,2.88,0,0,0,8.16,8l-.61-.39a3.38,3.38,0,0,0-1.21-.28q-.91-.1-.75,3.28h.33l.24,0,.22,0H7.6l.18,0ZM5.6,16.24s.07,0,.07,0Zm.11,1.49q-.11,0-.11,0Zm0-.58s0-.05,0-.05Zm.18.4s.05,0,.13,0h.2v-.09H5.75ZM6,17.23a.06.06,0,0,0-.07-.07c-.06,0-.09,0-.09.07s0,0,.09,0Zm-.13,1.05s0,0,0,.09a0,0,0,0,0,0,0s.05,0,.05,0Zm.05-1.71s-.05,0-.05.07,0,.09.05.09.07,0,.07-.09ZM6,6.38s0,0,0,.07,0,.09,0,.09a.08.08,0,0,0,.09-.09Zm.09-.25S6,6.15,6,6.2a0,0,0,0,0,.05.05s0,0,0-.05Zm.09,11a.16.16,0,0,0-.05.15Zm0,1.2s0,0,0,.09,0,0,0,0,.07,0,.07,0Zm.65.09a0,0,0,0,0,0,0l-.47,0a.62.62,0,0,0,.25,0,.37.37,0,0,0,.16,0Zm-.14-1.29s0,0,0,.07,0,.07,0,.07.05,0,.05-.07Zm0,.4s0,0,0,.09,0,.05,0,.05a0,0,0,0,0,.05-.05Zm.27-.4s0,0,0,.07,0,.07,0,.07,0,0,0-.07Zm.51,1.16-.25,0H7v.09l.25,0A.27.27,0,0,0,7.47,18.24Zm.05-.16s0,0,0,.05.09,0,.09,0ZM8,13.56s0,0,0,.07,0,.05,0,.05-.09,0-.09-.05S8,13.6,8,13.56Zm.07,3.87s0,0,.09,0Zm.16-.27s0,0,0,.07,0,0,0,0Zm0,.58s0,0,0,.07,0,.05,0,.05,0,0,0-.05Zm.62-3.58s0,0,0,.07v.09l-.09-.09V14s-.06.07-.14.07L8.51,14l.05-.07-.13-.18h.07a.8.8,0,0,0,.27.24.22.22,0,0,1,.15.2v.07Zm-.36-.67s0,0,0,.07.05,0,.05.07,0,.05,0,.05-.09,0-.09-.13Zm.13,4a.6.6,0,0,0-.13.13Zm.22-3.87-.18-.2.2-.13v.13a.11.11,0,0,0,0,.05.12.12,0,0,1,0,.07l.15.16v.18a.06.06,0,0,0,.07.07.06.06,0,0,0,.05,0,.06.06,0,0,1,.05,0l.07.07L9.27,14a.11.11,0,0,0,0,.07l-.07,0-.32-.15q-.19-.1-.19-.19Zm-.09,3.85s0,0,0,.09,0,.05,0,.05a0,0,0,0,0,.05-.05Zm.09.18c-.06,0-.09,0-.09.07s0,.07.09.07,0,0,0-.07Zm0-4s0,0,0,.05,0,0,0,0Zm.15.09s-.07,0-.07.05,0,.05.07.05Zm.05.76a.05.05,0,1,1,0,.11l0-.05Zm.25,1.76s.07,0,.07,0l-.11,0H9.22l-.15,0,.11-.09Zm-.18-2.43s0,0,0,.07-.09,0-.09,0Zm0,.84a.06.06,0,0,1,.07.07s0,.05-.07.05l-.09-.05a.32.32,0,0,1,.05-.13Zm0,2s-.05,0-.05.07S9.18,16.7,9.18,16.64Zm.07-3.09.07,0,.11.15s.07,0,.07.05,0,.05-.07.05l-.05,0a.12.12,0,0,1,0-.09l-.09,0s-.05,0-.05-.05Zm0,1.22s.07,0,.07,0,0,.09-.07.09Zm.15-4.31s-.05,0-.05.07a0,0,0,0,0,.05.05s0,0,0-.05Zm0,.13a0,0,0,0,0,0,0q0,.09,0,.09s.07,0,.07-.09Zm.07,6.05s-.07,0-.07.09S9.51,16.7,9.51,16.64Zm.09-6.29c-.06,0-.09,0-.09,0v.09Zm.18,6.81.07.05-.25.15Zm-.07-3.36s-.05,0-.05.07,0,0,.05,0,0,.07.05.07,0,0,0-.07S9.77,13.83,9.71,13.81ZM10.93,8.7l-.05.11a.24.24,0,0,0,0,.13l0,.11c0,.1-.09.23-.17.4a1,1,0,0,1-.23.34l-.71.67a.21.21,0,0,0,.2-.09l.56-.53.22-.31.07-.29L10.87,9A.6.6,0,0,1,11,8.74Zm-.38,1.38-.69.64c-.06,0-.09,0-.09,0h.09a.6.6,0,0,1,.18-.09.87.87,0,0,0,.24-.13l.07-.05.07,0v-.11l.24-.31ZM9.85,14s-.07,0-.07,0Zm0-3.38.16-.13.07-.05.07-.05h-.07Zm.05,4.22s-.05,0-.05.09,0,0,.05,0,0,0,0,0Zm0-.65a.18.18,0,0,1,0,.08.11.11,0,0,0,0,.08l.13.16L10,14.32A.29.29,0,0,0,9.91,14.15Zm.05.78,0,.13q.09,0,.09,0Zm0,2.14s.05,0,.05.07,0,.07-.05.07,0,0,0-.07ZM10,15.23v.18s0,0,0-.09Zm.07-2.89a0,0,0,0,0-.05.05q0,.15.13.15s.05,0,.05-.07,0-.07-.05-.07Zm.05.05s0,0-.05.07Zm0,2.34.13.11,0-.07a.22.22,0,0,0-.05-.11l-.05-.11Zm.07.2s-.05,0-.05.09,0,0,.05,0a0,0,0,0,0,0,0Zm0,.55s-.05,0-.05.09a0,0,0,0,0,.05.05s0,0,0-.05Zm0-9.45a.06.06,0,0,1,.07.07s0,0-.07,0Zm.07,9s-.05,0-.05,0,0,.09.05.09.07,0,.07-.09Zm.13-8.83s0,.05.07.05l.05.05a.06.06,0,0,1-.07.07s0,0,0-.07l-.05,0Zm.05,2.74s0,0,0,.05,0,.05,0,.05S10.6,9,10.6,9Zm0,2.27s0,0,0,.09,0,.09,0,.09.07,0,.07-.09Zm0,4.36s0,0,0,.05,0,.05,0,.05.07,0,.07-.05Zm.07-6.83a0,0,0,0,0-.05.05q0,.09.05.09A.3.3,0,0,0,10.6,8.74Zm0,6.32a.05.05,0,1,0,0,.11Zm0,.25s-.05,0-.05.09,0,0,.05,0,.05,0,.05,0Zm.09-8.87s0,0,0,.05,0,.05,0,.05-.07,0-.07-.05Zm0,.8s-.07,0-.07,0,0,.09.07.09Zm.11-.55c.06,0,.1,0,.13.11V7Zm.05,1.16s0,0,0,.05,0,.13,0,.13,0,0,0-.09ZM11,7s0,0,0,0,0,.09,0,.09-.07,0-.07-.09ZM11,8.5s0-.05-.07-.05Zm0-1.38q.16,0,.16.13l-.07.09,0-.09A.43.43,0,0,1,11,7.12Zm.16,1.82a.05.05,0,1,0,0,.11Zm.38,3s0,0,0,.07,0,.05,0,.05,0,0,0-.05Zm.13,3.38c0-.1,0-.16.09-.18Z" transform="translate(-2.17 -2.29)"/><path d="M14.49,18h-.11l-.64.2q-.31.07-.38,0L13.18,18l0-.2.05-.56a3.1,3.1,0,0,0,0-.33v-.07q0-.25,0-.22l.05-.07a.23.23,0,0,1,.09-.13L13,13.52l.07-.07v-.85l-.07,0V9.67l-.09-.4s-.11-.28-.33-.8q-.05,0-.13-.24a1.15,1.15,0,0,1-.07-.33l.15-.14a.75.75,0,0,1,0-.14,1.34,1.34,0,0,0,.06-.21l-.05-.11-.11,0L12.07,7A.36.36,0,0,0,12,6.84.48.48,0,0,1,12,6.72V6.65a1,1,0,0,1,.15-.6.65.65,0,0,0,.15-.4.94.94,0,0,0,.16-.25,3.22,3.22,0,0,1,.18-.3L12.71,5s0-.07,0-.14a.33.33,0,0,1,0-.15.45.45,0,0,0-.16-.15.21.21,0,0,1-.11-.19,1.13,1.13,0,0,1,.14-.39,1.15,1.15,0,0,0,.14-.48l.25,0a.4.4,0,0,1,.25.14l.05.13a.61.61,0,0,0,.1.34q.1.15.14.15l.36-.09.17,0h.06l.35-.25h.91l.11,0,.27.58a.32.32,0,0,1,.13.22l.07.16a.24.24,0,0,1,0,.11.24.24,0,0,0,0,.11v.47A9.73,9.73,0,0,0,16,6.65a9,9,0,0,1,.07,1V9.87q0,.18,0,.43l0,.46c0,.14,0,.27,0,.37s0,.17,0,.21l-.09.34a3.2,3.2,0,0,0-.1.79,2,2,0,0,1-.21.86.82.82,0,0,0-.05-.29.93.93,0,0,1-.05-.33l-.07.09a.78.78,0,0,0-.08.28,2.84,2.84,0,0,0,0,.52v.27l.18,1.56,1.2-.34s.1.05.27,0a1.68,1.68,0,0,0,.47-.08l1.2-.36a1.07,1.07,0,0,1,.51,0l.27.1s0,0,.11,0a.26.26,0,0,0,.13,0l0,.11.36-.09.05.13.2.09.2.11-.34.09.24,0h.19c.08,0,.12,0,.14,0l-.44.29,0,0,0,.07.05.09h.11s0,0,0,0l0,.05-.13,0-.05.22a.51.51,0,0,0-.2.15l-.15.15.05.05a.14.14,0,0,1-.11.15l-.11.11-.41.16-.33.15-.34.16a3.76,3.76,0,0,1-.45.15l-.42.08-.71.12ZM13.27,5V4.82h-.09Zm0,4.23s0,0,0,.07,0,.09,0,.09l0-.09Zm.89-3.76s-.05,0-.05.07,0,.07.05.07a.06.06,0,0,0,.07-.07Zm0,7.09s-.05,0-.05.07a0,0,0,0,0,.05.05s.07,0,.07-.05Zm0-3.92s0,0,0,.15,0,.09,0,.09.07-.05.07-.13Zm0,.44s0,0,0,.13v.33c0,.08,0,.13,0,.13a.68.68,0,0,0,.07-.25A.89.89,0,0,0,14.16,9.1Zm0,2.69s0,0,0,.09,0,.13,0,.13a.13.13,0,0,0,.07-.13Zm0,1s0,0,0,.05,0,.09,0,.09.07,0,.07-.09Zm.11-5.25a.06.06,0,0,0-.07.07s0,.05,0,.05l0,.07a0,0,0,0,0,0,0,.15.15,0,0,0,0,.11s0,.05.07.05a0,0,0,0,0,.05-.05.12.12,0,0,0-.05-.11s.05,0,.05,0,0,0-.05-.07a0,0,0,0,0,.05-.05Zm.89,6.16s-.07,0-.07.09l.07,0Z" transform="translate(-2.17 -2.29)"/><path d="M21,13.34s.07,0,.07,0,0,.05-.07.05Zm8,3.45s-.07,0-.07.09,0,.05.07.05-.07.05-.09,0h-.09l-.14,0-.07,0-.11.05a1.33,1.33,0,0,1,.34-.29,2.31,2.31,0,0,1,.47-.25l0-.05h-.11s.08-.06.09-.15v-.07a.74.74,0,0,0-.32.06l-.23.12-.05,0s0,0,0,.05a.22.22,0,0,0,0,.07l-.11,0-.05,0a.45.45,0,0,1-.26.09.41.41,0,0,0-.28.15h.2l-.55.11-.26.11a.62.62,0,0,1-.19.05l-.25.05h-.2s0,0,0,.05a1.09,1.09,0,0,1-.33.1l-.34,0h-.56a.24.24,0,0,1-.13,0l-.6-.2-.4-.15a.7.7,0,0,0-.31-.07l.09.15a.11.11,0,0,1,0,.07l-.27,0c-.11,0-.16,0-.16-.05l-.09,0-.75-.56-.36-.4-.29-.38s0,0-.1-.11l-.1-.15-.13-.35a.4.4,0,0,0-.08-.25.2.2,0,0,1-.06-.16l-.44-1.09a.26.26,0,0,1,0-.11.41.41,0,0,0-.05-.15v-.51a.2.2,0,0,0,0-.06.28.28,0,0,1,0-.08q0-.24.05-.82l0-.55a.71.71,0,0,1,0-.1.12.12,0,0,1,.07-.1l0-.05a.16.16,0,0,0,.05-.11l.13-.45a1.09,1.09,0,0,1,.13-.53,1.24,1.24,0,0,0,.13-.27L22,9l0-.07,0-.09a6.14,6.14,0,0,1,.51-.8,4.3,4.3,0,0,1,.67-.73l.07-.13a.35.35,0,0,0,.22-.13l.18-.15a1.72,1.72,0,0,1,.44-.31l.6-.24.55-.2L25.79,6l.38-.11.24-.06.18,0h2.69a1.05,1.05,0,0,1,.31,0l.33.05a3.44,3.44,0,0,1,1,.44,1.69,1.69,0,0,1,.42.38l.09.09a.07.07,0,0,1,0,.05l-.07.18L31.49,7v.09s.05,0,.05.07.05,0,.05.09,0,.05,0,.05,0,0,0-.05-.07,0-.07-.09l0,.09.27.4a.28.28,0,0,0,.06.17,1.14,1.14,0,0,1,.12.19l.11.2.27.69a.51.51,0,0,0,.06.25.43.43,0,0,1,.06.17v.53h.13s0,.09,0,.19,0,.16,0,.17l-.09.13a.1.1,0,0,1-.11.07.92.92,0,0,1,0-.18v-.18c0-.18,0-.29.07-.33h-.07a1.08,1.08,0,0,0,0-.16c0-.08,0-.13-.06-.15l-.11-.16A.26.26,0,0,1,32,9.5q-.13,0-.13.07l0,1.44H31.8a.65.65,0,0,1,0,.24q0,.16,0,.27v.13l-.07.09a.41.41,0,0,1-.1-.15.33.33,0,0,0,0-.09l-.05-.05,0,.29a.29.29,0,0,0,.05.19l.09.1a.26.26,0,0,0,0,.11l.07.11,0-.07a1.87,1.87,0,0,1,.05.45v.18s0,.09,0,.24,0,.24,0,.29l0,.22a2.44,2.44,0,0,0,.15-.63,7.87,7.87,0,0,0,.09-1.26l.07-.15a1.81,1.81,0,0,0,0,.26c0,.12,0,.2,0,.25v.14a.62.62,0,0,0,0,.2l-.07,0a.15.15,0,0,0,0,.11l.05.47s0,.12,0,.27a1.88,1.88,0,0,1-.06.34l-.07.27q-.07.25-.09.35c0,.07,0,.1-.09.1l0-.05s-.11.08-.17.25a1.64,1.64,0,0,0-.12.52L31.47,15a1.28,1.28,0,0,0-.23.26.74.74,0,0,0-.14.3l-.2.18.13-.25,0-.11-.73.82-.23.19a1.79,1.79,0,0,1-.28.19l-.24.13a.85.85,0,0,0-.13.16q-.05.09-.25.09h-.24s0,0,0-.05Zm-7.74-5.34a0,0,0,0,0-.05.05Zm0,.65s-.07,0-.07,0Zm.13.31s-.05,0-.05.07,0,.07.05.07,0,0,0-.07Zm.22-.56s0,0,0,.07,0,0,0,0,.05,0,.05,0Zm.18,3a0,0,0,0,0-.05.05s0,.07.05.07,0,.07.07.07,0,0,0-.05,0-.09,0-.09Zm.07-1.34s0,0,0,.07a0,0,0,0,0,0,0s.05,0,.05,0Zm.07.11s0,0,0,.07,0,.09,0,.09,0,0,0-.09Zm0,.16s0,0,0,.07,0,0,0,0,.07,0,.07,0Zm.2-4-.2.22.07.2.16-.33ZM22,14.52l0-.05s-.07,0-.07.09l.07,0s0,.05,0,.05.07.09.09.09a0,0,0,0,0,0,0q0-.11-.05-.11ZM22,15s0,0,0,0,0,0,0,0,.05,0,.05,0Zm0-.53s0,.05,0,.05Zm.05-1.6s-.05,0-.05.07a0,0,0,0,0,.05.05s0,0,0-.05Zm0,1.09s0,0,0,0a.23.23,0,0,0,0,.05,0,0,0,0,0,0,0s.05,0,.05,0Zm0-5s0,0,0,.05,0,.05,0,.05a0,0,0,0,0,.05-.05Zm.09,4.25a.06.06,0,0,0-.07.07s0,0,.07,0a0,0,0,0,0,0,0Zm0,.58a0,0,0,0,0-.05.05s0,.07.05.07.05,0,.05-.07Zm0,.49s-.05,0-.05.07a.05.05,0,0,0,.11,0Zm0,.38a0,0,0,0,0-.05-.05s0,0,0,.05Zm-.05-6a.2.2,0,0,0,0,.09Zm.05-.13s0,0,0,.09a0,0,0,0,0,0,0s.05,0,.05,0Zm3.36,5.51s-.07,0-.07,0l-.07-.07,0-.07a.2.2,0,0,1,0-.09l-.09.05v-.2l0-.09s0-.08,0-.18,0-.15,0-.16h.07l.05-.16.16.51,0,.09-.05.13.07,0A6,6,0,0,0,26.4,15q.26.28.35.28l.29.07.29.07.24.07.1,0h.5a.82.82,0,0,1,.31-.07,3,3,0,0,0,.45-.09l.87-.29a.15.15,0,0,0,.11,0L30,15a1.75,1.75,0,0,1,.07-.21,1.15,1.15,0,0,1,.09-.19l-.15.05v-.11s0-.07.07-.18a.73.73,0,0,1,.07-.22v.29l.13-.22s0,0,0-.06a.84.84,0,0,0,0-.12l.07-.51-.07.11a.77.77,0,0,1,0,.15.94.94,0,0,0,0,.13L30.2,14l0-.58a4.18,4.18,0,0,0,.06-.75q0-.49,0-.91l.07,0,.07.36c.06,0,.1,0,.13.15l0,.67.09.07s0-.08,0-.18,0-.16,0-.2l0-.44.16.13s.07,0,.07-.05l0-.31a.12.12,0,0,1,0-.09l0-.33a1.08,1.08,0,0,0-.05-.34l0-.51-.11,0-.13-.11,0,.51-.11-.22,0,.24-.15-.54a1.91,1.91,0,0,1-.07-.37l-.09-.13.05,1.36a.68.68,0,0,1-.1-.3,2.52,2.52,0,0,1,0-.3l0-1-.07-.18a1.17,1.17,0,0,0,0-.16l0-.09L30,9.36s0,0,0-.07L29.82,9a.15.15,0,0,0,0-.09l0-.18a.14.14,0,0,1-.1-.11s0-.07,0-.05a.05.05,0,0,1,0,0l-.12,0-.1,0q-.13,0-.15.15a.74.74,0,0,1-.08.25,1.47,1.47,0,0,0,0,.19.74.74,0,0,1,0,.1.07.07,0,0,1,0,.05.87.87,0,0,0,.1.42q.12.27.21.45l.05.11-.05,0v.13a.71.71,0,0,0-.26.05c-.09,0-.14.07-.14.09h-.09l-.22.16a.75.75,0,0,0-.07.23,1.48,1.48,0,0,0,0,.3l-.07.4s0,0,0,0a.42.42,0,0,1,0,.12,1.36,1.36,0,0,0,0,.17l-.05.2a.05.05,0,0,0,0,0,.1.1,0,0,0,0,.07v.25c0,.07,0,.14,0,.2s0,.12,0,.18l0-.94,0-.49a.41.41,0,0,0,0-.18v-.73a.25.25,0,0,1,0-.11.07.07,0,0,1,0-.05l.07-.16v-.13q0-.25-.06-.27l-.12-.05-.05-.07-.07,0,0,.05a.05.05,0,0,0,0,0q0,.11-.11.13l-.09,0h-.2s-.09,0-.12-.12-.14-.12-.32-.12L27,9.45l0-.33a.71.71,0,0,1,.15-.25l.11,0,.13-.09.1,0a.19.19,0,0,0,.1,0h.11a.15.15,0,0,0,.12-.13.91.91,0,0,1,.08-.25V8.27a.4.4,0,0,0-.29.09l0,.05a.63.63,0,0,0,0,.2h-.29l0-.2a.21.21,0,0,1,0-.06.22.22,0,0,0,0-.06l.16-.13a.07.07,0,0,0,.07.05q.11,0,.11-.05V8a.29.29,0,0,1,0-.13s0-.08,0-.09L27.19,8l-.36.16a.6.6,0,0,1-.29,0,.53.53,0,0,1-.2,0l-.17-.09A.77.77,0,0,0,26,8a1,1,0,0,0-.28,0l-.22-.15h-.07l-.51.51a.87.87,0,0,0-.27.43,1.34,1.34,0,0,1-.29.5l-.19.35a1.47,1.47,0,0,0-.15.68v.13l-.07.31.07,2a1.91,1.91,0,0,0,.16.65,2,2,0,0,0,.25.46l.07,0V14l.56.87s0,0,.05.05l.05.07a.6.6,0,0,0-.1-.31.55.55,0,0,1-.1-.25v-.07a.57.57,0,0,1-.15-.22,1,1,0,0,0-.16-.27v-.07a1.28,1.28,0,0,0,0-.22c0-.11,0-.17,0-.18v-.25l.36.89a1.39,1.39,0,0,0,.09.19l.11.21.11.05,0,.09s.05,0,.05,0l.09.05,0,.09.15.15.11.18.11.07h.56L26.1,15l.09-.07a.33.33,0,0,0-.16-.05v-.13a.12.12,0,0,1-.11.05q-.09,0-.09-.05l0-.09a.08.08,0,0,1,0-.05h-.07s0-.07-.09-.1a.19.19,0,0,1-.09-.19h.07s0,0,0-.09ZM24.39,9.94a.23.23,0,0,1,0,.13s-.09.05-.18.05V10S24.27,10,24.39,9.94Zm.07,2.87.05.09a.3.3,0,0,1,0,.15s0,0,0-.11Zm.38-2.73s0,.07-.09.09l-.11,0s0-.08.13-.09ZM24.77,8.5s.05,0,.05.09a.08.08,0,0,1-.09,0Zm0,4.54s.05.06.05.07a0,0,0,0,1-.05.05Zm.09-2.8,0,.07s0,.05,0,.05,0,0,0-.05Zm0,3.09s.05,0,.05.09a.1.1,0,0,1,0,.07Zm0,2.09s0,0,0,.07a0,0,0,1,0,.07,0Zm.22-5.89,0,.14c0,.07-.07.11-.09.11L25,9.65Zm0,4s0,0,0,.07,0,0,0,0-.07,0-.07,0Zm-.07.27.07.11V14L25,13.88Zm.11-1.67-.05.07V12.1s0-.11,0-.25,0-.22,0-.25Zm0,.2.07.11.05-.11a.78.78,0,0,1,.09.31.77.77,0,0,0,.09.31v.35l-.29-.35Zm.11-2a0,0,0,0,1,0,0,.33.33,0,0,1,0,.07s0,0,0,0,0,0-.05-.07Zm0,3.8s0,0,0,.05Zm.07-.75s.05,0,.05.11-.08,0-.09,0Zm0,.91s.05,0,.05,0Zm.05-2.36s0,0,0,.05,0,.05,0,.05ZM26,9.36a.12.12,0,0,0-.09,0l.29-.31.09,0H26.2l.11-.13h.07l0-.07s0-.07.05-.07l.35-.25h.14l-.13.11s-.06.1-.15.16a.55.55,0,0,0-.15.13l-.05,0v.11l.25-.13-.58.56A3.87,3.87,0,0,0,25.44,11l-.11.44c0,.12,0,.19-.09.22a.28.28,0,0,1,0-.14c0-.07,0-.11,0-.12v-.2h.07a1.44,1.44,0,0,0,0-.18,1.39,1.39,0,0,1,0-.18.65.65,0,0,0,.06-.23c0-.11,0-.2,0-.25l.24-.62a.18.18,0,0,1,.05-.1l.07-.08.13-.18q0,.11.09.11s0,0,0-.05Zm-.6.4-.15.49a.3.3,0,0,1,0-.14l0-.09Zm-.11,3.74s.05,0,.05.07,0,0-.05,0a0,0,0,0,1,0,0Zm.05-1.2s0,0,0,.07a0,0,0,0,1,0,0s-.07,0-.07,0Zm.05,1.82.11.45-.11-.16a.3.3,0,0,1-.09-.22v-.07Zm0-1.56,0,.11a.1.1,0,0,1,0,.07s0,0,0-.07Zm.13-2.11a.53.53,0,0,0-.08.19.93.93,0,0,0,0,.21V11l.15-.44A.1.1,0,0,1,25.5,10.45Zm0-.87s0,0,0,.09a0,0,0,0,1,0,0s-.07,0-.07,0Zm0,3.42s0,0,0,.05l0,.07A.23.23,0,0,1,25.46,13Zm.09-4a0,0,0,0,1-.05.05s0,0,0,0Zm0,5.56a0,0,0,0,0,0,0,.15.15,0,0,0,0,0,.15.15,0,0,1,0,0,.07.07,0,0,1-.09-.05Zm.14-4.78a0,0,0,0,0-.05.05.08.08,0,0,0,.09.09s0,0,0-.05Zm0,5s0,0,0,.07,0,.05,0,.05,0,0,0-.05Zm0-.36s0,0,0,.05,0,.05,0,.05,0,0,0-.05Zm.15-4.83a.06.06,0,0,0-.07.07l-.05.11.11-.11ZM25.82,15a.06.06,0,0,1,.07.07s0,0-.07,0a0,0,0,0,1,0,0Zm.07-.4a.06.06,0,0,0-.07.07.09.09,0,0,0,.09.07s0,0,0,0Zm.13.27s0,0,0,.05S26,15,26,15s.05,0,.05-.07Zm.93.84a0,0,0,0,0,0,0s0,.07,0,.07Zm0-6.94s0,.07,0,.07Zm0-.38s0,0,0,.05,0,.09,0,.09-.05,0-.05-.09Zm.56,8.43s0,0,0,.09,0,.05,0,.05,0,0,0-.05Zm0-9.25.07,0,.07,0-.07-.09H27.6Zm.15.36c0,.06.06.09.11.09l.08-.05.06,0V7.78l-.05-.09V7.58l-.2.11Zm.56,1.6.09-.05a.67.67,0,0,1,.05-.17c0-.09.08-.14.13-.15L28.64,9V8.79a2.42,2.42,0,0,1-.29-.43A.87.87,0,0,1,28.28,8l-.09,0a.21.21,0,0,0-.22.24V8.3a2.07,2.07,0,0,0,.09.44l.13-.09,0,.05,0,.75Zm-.22-1.22s0,0,0,.07,0,.05,0,.05S28,8.4,28,8.36Zm.11-.13s0,0,0,.09a0,0,0,0,1,0,0s0,0,0,0Zm.09,8.94a0,0,0,0,1,0,0s0,.05,0,.05ZM29,11.61s0,0,.07.05,0,.07,0,.07-.05,0-.05-.07Zm.16,3.87a.05.05,0,0,0,0,.11s0,0,0-.05Zm0-6.12s-.05,0-.05.09a0,0,0,0,0,.05.05s0,0,0-.05Zm.38,6.38v.07s0,0-.05,0l-.07.09a.1.1,0,0,0-.07,0l-.07.11a.14.14,0,0,0,0,.09s0,0,.1,0h.1l.07,0,.05,0,.24-.29s.06,0,.06-.08a1.26,1.26,0,0,0,0-.14l0-.11a.31.31,0,0,0-.16.1A.55.55,0,0,1,29.55,15.74Zm-.27,1s0,0,0,0,0,.09,0,.09.07,0,.07-.09Zm.11-1.16s-.05,0-.05.09,0,0,.05,0a0,0,0,0,0,0,0Zm.05,1a.06.06,0,0,0-.07.07s0,.05.07.05,0,0,0-.05Zm.25-1.07-.13.05s-.07,0-.07.05l.14,0A.09.09,0,0,0,29.69,15.48Zm-.11-6.87s.05,0,.05.09l0-.05s0,0,0,.09,0,.05,0,.05a0,0,0,0,1-.05-.05s-.05,0-.05,0Zm.05-.25s-.05,0-.05,0S29.61,8.38,29.64,8.36Zm0-.51a0,0,0,0,0-.05.05c0,.06,0,.09.07.09a.08.08,0,0,0,.09.05s0,0,0-.05l0-.09Zm0,.24s0,0,0,.07,0,.05,0,.05,0,0,0-.05Zm.13,7s0,0,0,.09,0,.07.05.07a0,0,0,0,0,0,0Zm.38-7.34-.07-.09,0,.05q0-.09,0-.09s-.05,0-.05,0,0,.09.05.09a.38.38,0,0,0,.11.16l.11.05s0,0,0-.05,0-.09-.05-.09Zm0,0s0,.07-.05.07Zm-.05,7.12h.2l.07-.05,0-.27s0-.05-.07-.05Zm.09-3.13s0,0,0,.09,0,.05,0,.05,0,0,0-.05Zm.16,2.51a0,0,0,0,0-.05.05s0,.07.05.07,0,0,0-.07Zm0-6.23s0,0,0,.05,0,.05,0,.05,0,0,0-.05Zm.05.11,0,.05h.07Zm0,4.83s.07-.08.07-.11l0-.42-.07.09Zm.07-1.07s0,0,0,.05,0,.05,0,.05,0,0,0-.05Zm.07-.15s.05,0,.05.09a.05.05,0,1,1-.11,0Zm0-3.36s0,0,0,.05a0,0,0,0,0,0,0Zm0,.87s0,0,0,.07,0,.09,0,.09.07,0,.07-.09Zm0-.64s0,0,0,.09,0,.05,0,.05l0-.05A.12.12,0,0,1,30.66,8.65Zm.09.29s-.05,0-.05.07a0,0,0,0,0,.05.05.07.07,0,0,0,0-.05Zm0,2.8s.05,0,.05,0,0,.07-.05.07Zm0-1.29h.09l0-.07Zm0,4.67s0,0,0,.09,0,.07.07.07,0,0,0,0Zm.16-2.56.07.13v-.13l-.07-.09Zm.22-.95a0,0,0,0,0,0,0q0,.09.05.09s.05,0,.05-.07Zm0,.24.05.07.05,0v-.2Zm0,3.05s0,0,0,.09,0,.05,0,.05,0,0,0-.05Zm.13-1.78s0,0,0,.05,0,.09,0,.09.07,0,.07-.09Zm0-1.16s0,0,0,.07,0,.07,0,.07a.16.16,0,0,0,0-.07A.11.11,0,0,1,31.27,12Zm0,3.4s.05,0,.05.07a0,0,0,0,1-.05.05s0,0,0-.05Zm.09-3.11s-.05,0-.05.07,0,.13,0,.13a.22.22,0,0,0,.05-.13Zm0,3v.07l-.05,0Zm.07-.74c-.06,0-.09.06-.09.11S31.46,14.55,31.46,14.46Zm0-.18s-.07,0-.07.05a.06.06,0,0,0,.07.07s0,0,0-.07Zm0-.4s.05,0,.05-.11l0-.44a1.11,1.11,0,0,0-.05-.16Zm.07,1.6s0,.05-.07.05S31.5,15.48,31.56,15.48Zm0-8.58,0,.05s.07.06.07.07,0,.05-.07.05,0,0,0-.05A0,0,0,0,1,31.53,7Zm.07,5.34a.06.06,0,0,0-.07.07s0,.05.07.05,0,0,0-.05Zm.44,2.27a.76.76,0,0,1-.05.33,1.12,1.12,0,0,1-.13.2l-.05.05-.05,0Zm.09-.18s0,.07,0,.07-.07,0-.07-.05Zm.2-3.13s0,0,0,.07,0,.05,0,.05a0,0,0,0,1-.05-.05Zm0-.62q.13,0,.13.11l-.13.05Z" transform="translate(-2.17 -2.29)"/><path d="M33.66,9.8s.05.05,0,.07-.05,0-.09,0Zm8.42,7v-.07s-.13,0-.28.1a1.64,1.64,0,0,0-.39.36l0-.1a1.28,1.28,0,0,0-.34.09.74.74,0,0,0-.28.17l-.27,0,.25-.14,0-.1-1.06.26-.3,0a1.79,1.79,0,0,1-.34,0l-.27,0-.2.06q-.1,0-.26-.07l-.19-.13s0,0,0,0l0-.09s-.08,0-.11,0,0,.06,0,.09-.08,0-.1,0l-.08,0-.14-.05-.07,0-.12,0a1.33,1.33,0,0,1,.45,0,2.31,2.31,0,0,1,.53.06l.06,0L38.62,17s.1,0,.16-.07l0-.06a.74.74,0,0,0-.3-.13l-.25,0H38.2l-.07,0-.06,0-.11,0-.06,0a.45.45,0,0,1-.27-.07.41.41,0,0,0-.31,0l.16.11L37,16.55l-.28-.06a.62.62,0,0,1-.19-.06l-.24-.1-.16-.11s0,0-.06,0a1.09,1.09,0,0,1-.33-.1A2.06,2.06,0,0,1,35.4,16l-.46-.32q-.09-.06-.09-.09l-.38-.5-.25-.35a.7.7,0,0,0-.21-.24v.17a.11.11,0,0,1,0,.07l-.21-.17c-.08-.07-.12-.12-.1-.14l-.06-.07-.29-.89-.07-.53,0-.48a.34.34,0,0,1,0-.15,1.21,1.21,0,0,1,0-.18l.09-.36a.4.4,0,0,0,.08-.26.2.2,0,0,1,0-.17l.26-1.15a.26.26,0,0,1,0-.11.41.41,0,0,0,0-.15L34,9.53l0-.06,0-.07q.13-.19.51-.64l.28-.47.07-.07a.12.12,0,0,1,.12,0l.06,0a.16.16,0,0,0,.11-.06l.36-.3a1.09,1.09,0,0,1,.4-.36,1.24,1.24,0,0,0,.26-.15L37,6.84V6.76l.08-.05A6.14,6.14,0,0,1,38,6.34a4.3,4.3,0,0,1,1-.22l.13-.06a.35.35,0,0,0,.25,0l.23,0a1.72,1.72,0,0,1,.53,0l.63.15.56.14.5.17.38.13.23.08a.63.63,0,0,1,.17.08l.28.2.27.18.29.19.48.33.31.22.23.17.15.1.19.14a1.05,1.05,0,0,1,.23.21l.24.23a3.44,3.44,0,0,1,.59.94,1.69,1.69,0,0,1,.13.55l0,.13,0,0-.16.11.15,0-.05.07s0,.05,0,.09,0,.06,0,.11,0,0-.06,0,0,0,0-.07,0-.07,0-.12l-.07.06v.48a.28.28,0,0,0,0,.18,1.14,1.14,0,0,1,0,.22l0,.23-.17.72a.51.51,0,0,0-.09.24.43.43,0,0,1,0,.18M43.68,15.1l-.08.12a.62.62,0,0,0-.14.14h-.08a.15.15,0,0,0,0,.11l-.22.42-.18.21a1.88,1.88,0,0,1-.25.25l-.21.18-.28.24m2.88-3.66c0-.08,0-.13,0-.16v-.2c-.06.09-.12.14-.18.14s-.12-.05-.15,0L44,14.08,43.9,14a.65.65,0,0,1-.1.22l-.15.23-.07.1-.11,0a.41.41,0,0,1,0-.18.33.33,0,0,0,0-.1v-.08l-.15.25a.29.29,0,0,0-.06.19c0,.06,0,.1,0,.13a.26.26,0,0,0,0,.11v.13l0-.07a1.87,1.87,0,0,1-.21.41l-.1.15-.16.18-.19.22-.11.19a2.44,2.44,0,0,0,.47-.43,7.87,7.87,0,0,0,.79-1M34.91,8.37a0,0,0,0,0-.08,0Zm-.34.56s-.07,0-.08,0Zm-.07.33s-.06,0-.09,0,0,.07,0,.09,0,0,.06,0Zm.5-.34s0,0-.06,0,0,0,0,0S35,9,35,9Zm-1.55,2.57a0,0,0,0,0-.08,0s0,.07,0,.09,0,.08,0,.1,0,0,.06,0,0-.08,0-.1Zm.82-1.07s0,0-.07,0a0,0,0,0,0,0,.05s.05,0,.07,0Zm0,.13s0,0-.07,0,0,.08,0,.1,0,0,.07-.06Zm-.06.16s0,0-.06,0,0,0,0,0,.07,0,.08,0Zm2.42-3.17-.29.07-.05.21.32-.18Zm-2.75,3.84v-.07s-.08,0-.11,0l0,.06s0,.05,0,.07,0,.11,0,.13a0,0,0,0,0,.05,0q.06-.09,0-.12Zm-.34.4s0,0,0,0,0,0,0,0,.05,0,.07,0Zm.33-.41s0,0,0,0Zm1-1.29s-.06,0-.09,0a0,0,0,0,0,0,.08s0,0,.06,0Zm-.6.91s0,0,0,0l0,.05a0,0,0,0,0,0,.06s.05,0,.07,0ZM37,6.88s0,0-.06,0S37,7,37,7a0,0,0,0,0,.08,0Zm-2.33,3.55a.06.06,0,0,0-.1,0s0,0,0,.07a0,0,0,0,0,.05,0Zm-.31.49a0,0,0,0,0-.08,0s0,.07,0,.09.06,0,.09,0Zm-.26.41s-.06,0-.09,0a.05.05,0,1,0,.09.06Zm-.19.33a0,0,0,0,0,0-.08s0,0-.06,0Zm3.34-5-.07.06Zm.12-.07s0,0-.08.05a0,0,0,0,0,0,.05s.05,0,.07,0Zm5.12,5.48-.79-2.28a.15.15,0,0,0,.17,0,.91.91,0,0,1,.21-.16l.08-.12a.4.4,0,0,0-.29-.09l-.06,0a.63.63,0,0,0-.08.19l-.24-.16.1-.17.05,0,.05,0h.21a.07.07,0,0,0,0,.09q.09.06.12,0l.09-.13a.29.29,0,0,1,0-.13.11.11,0,0,0,0-.1l-.45,0-.39-.07s-.12,0-.26-.13A.53.53,0,0,1,41,8.61a.94.94,0,0,1-.09-.17.77.77,0,0,0-.11-.19,1,1,0,0,0-.21-.19l-.1-.24-.06,0-.71.13a.87.87,0,0,0-.47.2,1.34,1.34,0,0,1-.52.25l-.36.18a1.47,1.47,0,0,0-.51.47l-.07.1-.24.21L36.47,11a1.91,1.91,0,0,0-.23.62,2,2,0,0,0-.05.53l0,.07-.05.07,0,1s0,0,0,.08a.54.54,0,0,0,0,.09.6.6,0,0,0,.09-.31.55.55,0,0,1,.06-.27l0-.06a.57.57,0,0,1,0-.26,1,1,0,0,0,0-.32l0-.06a1.28,1.28,0,0,0,.09-.2l.07-.17.14-.21-.2.94a1.39,1.39,0,0,0,0,.21l0,.23.06.11,0,.08s0,0,0,0l0,.1,0,.09,0,.2v.21l0,.12.46.32L37,14h.12a.33.33,0,0,0-.1-.14l.07-.1a.12.12,0,0,1-.12,0s-.06-.07,0-.1l0-.09,0,0-.06,0s0-.07,0-.13a.19.19,0,0,1,0-.21l.06,0s0,0,.08-.05v-.08s-.07,0-.08,0l0-.1,0-.07a.2.2,0,0,1,.07-.06h-.11l.11-.16,0-.1.11-.14.1-.13.06,0,.14-.1-.15.51-.07.06-.12.07.07,0a6,6,0,0,0,0,1.33q.06.38.13.43a1.56,1.56,0,0,1,.2.22,1.52,1.52,0,0,0,.2.22l.15.19.07.08,0,0,.37.26a.82.82,0,0,1,.3.12,3,3,0,0,0,.43.18l.88.25a.15.15,0,0,0,.11,0h.12l.18-.13.18-.11-.15,0,.06-.09s.08,0,.16-.11a.73.73,0,0,1,.18-.14l-.16.24.23-.11s0,0,.06,0l.07-.09.35-.38-.12,0-.11.1-.09.09-.13.06.36-.46a4.18,4.18,0,0,0,.47-.58l.54-.73h.08l-.15.34s.06.1,0,.19l-.37.56,0,.11.11-.14.12-.16.28-.34.06.2s.07,0,.09,0l.14-.27a.12.12,0,0,1,.08-.05L43,14a1.08,1.08,0,0,0,.15-.32l.26-.44-.11,0,0-.16-.27.43,0-.24-.12.21.18-.52a1.91,1.91,0,0,1,.15-.35v-.16l-.73,1.15a.68.68,0,0,1,.09-.3,2.52,2.52,0,0,1,.13-.27l.53-.8,0-.19a1.17,1.17,0,0,0,.06-.16.71.71,0,0,0,0-.1v-.11s0,0,0-.07l0-.32a.15.15,0,0,0,0-.09l.09-.16a.14.14,0,0,1,0-.15l0,0,0,0a.24.24,0,0,1-.09-.08.2.2,0,0,0-.07-.07q-.1-.07-.21,0a.74.74,0,0,1-.21.16M41.51,9.62a.19.19,0,0,1,.07.08m-.33-.11-3-.58s-.1,0-.18-.06l.05-.07m-1.34,2.46v.11q-.07.1-.1.11s0-.05,0-.11Zm1.86-2s-.06,0-.13,0l-.11,0s.08,0,.16,0ZM39.52,8s0,.06,0,.11A.08.08,0,0,1,39.45,8ZM36.93,11.7a.17.17,0,0,1,0,.09,0,0,0,0,1-.08,0Zm1.66-2.25,0,.07s0,0,0,0,0,0,0-.07ZM36.81,12s0,.06,0,.11a.1.1,0,0,1-.07,0Zm-1.15,1.74s0,0-.07,0a0,0,0,1,0,.06,0ZM39.17,9l-.11.1c-.07,0-.12.05-.14,0l.16-.07Zm-2.26,3.25s0,0,0,.07,0,0,0,0-.05-.05,0-.07Zm-.21.18v.13l-.07.1v-.15Zm1-1.32-.09,0,0-.06.15-.19.15-.19Zm-.14.14v.13l.11-.06a.78.78,0,0,1-.1.31.77.77,0,0,0-.1.31l-.2.28,0-.45Zm1.21-1.57a0,0,0,0,1,0,.06l0,.06s0,0,0,0,0,0,0-.09Zm-2.18,3.11s0,0,0,.07Zm.48-.57s0,.06,0,.12-.06,0-.05-.08Zm-.53.74s0,0,0,0ZM38,11a.1.1,0,0,1,0,.07s0,0-.06,0Zm1.36-1.69-.4.32c0-.07.08-.11.1-.11l.07-.06Zm-2.21,3s0,.05,0,.09,0,0-.07,0a0,0,0,0,1,0-.05Zm.72-1s0,0,0,.08a0,0,0,0,1-.05,0s-.05-.05,0-.07Zm-1,1.53-.17.44v-.2a.3.3,0,0,1,0-.23l0-.06Zm.87-1.3,0,.11a.1.1,0,0,1-.07,0s0,0,0-.07ZM39,10a.53.53,0,0,0-.18.11.93.93,0,0,0-.16.15l-.06.09.37-.28A.1.1,0,0,1,39,10Zm.46-.74s0,0,0,.1a0,0,0,0,1-.05,0s-.05-.05,0-.07Zm-1.93,2.81s0,0,0,.06l-.06,0A.23.23,0,0,1,37.55,12.06Zm2.33-3.23a0,0,0,0,1-.08,0s0,0,0,0Zm-3.13,4.59a0,0,0,0,0,0,0l0,0,0,0a.07.07,0,0,1,0-.1Zm0,.25s0,0,0,.08,0,0-.06,0,0,0,0-.07Zm.24-.28s0,0-.06,0,0,.05,0,.07,0,0,.06,0Zm-.26.51a.06.06,0,0,1,0,.1s0,0-.08,0a0,0,0,0,1,0-.05Zm.29-.29a.06.06,0,0,0-.1,0,.09.09,0,0,0,0,.11s0,0,0,0Zm0,.3-.06,0s0,.07,0,.08.06,0,.09,0Zm.29,1.21a0,0,0,0,0-.05,0s0,.07,0,.08Zm-.12,1.26s0,0-.08.05,0,.05,0,.07,0,0,.06,0Zm5.27-7.6,0,.07h.08V8.75l-.06,0Zm-.09.38a.12.12,0,0,0,0,.14h.17l.07-.1V9.1L42.67,9l-.23,0Zm.23,1.24a2.42,2.42,0,0,1,0-.52.87.87,0,0,1,.15-.35s-.06,0-.06-.07a.21.21,0,0,0-.31.07l-.05.07a2.07,2.07,0,0,0-.17.41h.16v.07m.13-.42s0,0,0,.08,0,0-.06,0,0-.06,0-.09Zm.16,0s0,0,0,.1a0,0,0,0,1-.05,0s0,0,0,0Zm-5,7.42a0,0,0,0,1,0,.05s0,0-.06,0Zm1.6-.86a.05.05,0,1,0-.06.09s0,0,.06,0Zm.2.45,0,.06s0,0-.07,0l-.11,0a.1.1,0,0,0-.08,0l-.12,0s0,0-.07.06,0,0,.08.06l.09,0,.07,0,.06,0,.36-.11s.06,0,.1,0l.08-.11,0-.1a.31.31,0,0,0-.19,0A.55.55,0,0,1,39.36,16.63Zm-.8.68s0,0,0,0,0,.08,0,.09.08,0,.11,0Zm.75-.9s-.06,0-.1,0,0,0,0,.06a0,0,0,0,0,.05,0Zm-.5.82a.06.06,0,0,0-.1,0s0,.06,0,.09,0,0,0,0Zm.82-.74-.14,0s-.07,0-.09,0a.34.34,0,0,0,.13.05A.09.09,0,0,0,39.63,16.51Zm3.8-5.72s0,.06,0,.11l0,0s0,0,0,.09,0,0,0,0a0,0,0,0,1,0-.08s0,0,0-.06Zm.19-.18s0,0-.06,0S43.58,10.61,43.62,10.61Zm.3-.41a0,0,0,0,0-.08,0c0,.06,0,.1,0,.12a.08.08,0,0,0,0,.1s0,0,0,0l0-.1Zm-.12.21s0,0-.07,0,0,.05,0,.07,0,0,.06,0Zm-3.88,5.87s0,0-.08.05,0,.08,0,.09a0,0,0,0,0,.05,0Zm4.47-5.83v-.12l0,0s0-.08,0-.1-.05,0-.07,0,0,.09,0,.11a.38.38,0,0,0,0,.2l.06.11s0,0,0,0,0-.09,0-.11Zm0,0s-.06,0-.09,0ZM40.3,16.26l.16.11h.09l.14-.24s0-.06,0-.09Zm1.85-2.52s0,0,0,.1,0,0-.06,0,0,0,0-.07ZM40.86,15.9a0,0,0,0,0-.08,0s0,.07,0,.09,0,0,.07,0Zm3.55-5.13s0,0,0,0,0,0,0,.06,0,0,.06,0Zm0,.12,0,0,.06,0Zm-2.74,4c.07,0,.11,0,.12,0l.22-.35-.11,0Zm.67-.84s0,0,0,.07,0,0-.06,0,0,0,0-.06Zm.14-.08s0,.06,0,.11a.05.05,0,1,1-.09-.06Zm1.9-2.77s0,0-.06,0a0,0,0,0,0,0,.05Zm-.46.74s0,0-.06,0,0,.08,0,.09.08,0,.11,0Zm.39-.5s0,0-.07.06,0,0,0,.06l.06,0A.12.12,0,0,1,44.29,11.42Zm-.09.29s-.06,0-.09,0a0,0,0,0,0,0,.08l0,0ZM42.59,14s0,0,0,.06-.06,0-.09,0Zm.75-1.05.07.05,0-.07Zm-2.62,3.87s0,0-.08.05,0,.08,0,.1,0,0,0,0Zm1.59-2v.15l.07-.1v-.12Zm.71-.66a0,0,0,0,0-.05,0s0,.09,0,.11.06,0,.09,0Zm-.16.17v.09l0,0,.11-.16Zm-1.71,2.53s0,0-.07.06,0,0,0,.06,0,0,.06,0Zm1.11-1.4s0,0,0,0,0,.08,0,.09.08,0,.11,0Zm.67-.95s0,0-.06,0,0,.06,0,.07l.06,0A.11.11,0,0,1,42.93,14.5ZM41,17.31s0,.05,0,.09a0,0,0,0,1-.08,0s0,0,0-.07Zm1.83-2.51s-.06,0-.09,0-.06.11,0,.13a.22.22,0,0,0,.12-.07Zm-1.68,2.44,0,.06,0,0Zm.48-.57a.12.12,0,0,0-.14,0S41.61,16.74,41.66,16.67Zm.1-.15s-.07,0-.09,0a.06.06,0,0,0,0,.1s0,0,.07,0Zm.26-.31s.07,0,.11-.06l.23-.37a1.11,1.11,0,0,0,0-.17Zm-.85,1.36s-.05,0-.09,0S41.12,17.53,41.17,17.57ZM46,10.5v.07c0,.06,0,.09,0,.1s-.05,0-.09,0,0,0,0-.06a0,0,0,0,1,0-.08Zm-3,4.44a.06.06,0,0,0-.1,0s0,.06,0,.09,0,0,.06,0Z" transform="translate(-2.17 -2.29)"/><path d="M48.35,17.7l-.15-.24a.52.52,0,0,1-.24.05s0,.11,0,.19a.22.22,0,0,1-.07.15h-.09s0,.06,0,.14a1.37,1.37,0,0,1,0,.17s0,.05,0,.05l-.09.07a.37.37,0,0,0-.09-.13.35.35,0,0,1-.09-.13l-.07,0-.09,0s-.07,0-.07,0l-.09-.35-.06-.11c0-.06-.05-.09-.06-.09v.18l.22.6c-.11,0-.2-.08-.26-.25a3.84,3.84,0,0,0-.19-.41L46.46,15a3.55,3.55,0,0,0,0-.48c0-.18,0-.28,0-.32v-.29s0-.11,0-.18,0-.12,0-.13l-.07-.15a.86.86,0,0,1-.07-.47,1,1,0,0,1,0-.29v-.13a3.52,3.52,0,0,1,0-.52,3.14,3.14,0,0,1,.12-.52V11.3a.71.71,0,0,1,0-.22v-.8a3.38,3.38,0,0,1,.06-.44,3.44,3.44,0,0,0,.06-.62V9s0-.14,0-.26,0-.2,0-.21a7.31,7.31,0,0,1,.05-.91,6.61,6.61,0,0,0,.05-.82V6.49a.65.65,0,0,0,.06-.32c0-.16,0-.26,0-.3l.24-.58a.21.21,0,0,1,.12,0,.2.2,0,0,0,.1,0l0-.09a.11.11,0,0,1,0-.07L47.37,5s0,0-.11-.06a.61.61,0,0,0-.24,0l.16-.22a.32.32,0,0,0,0-.13l.13.09L48,4.51l-.13,0c0-.08,0-.13.11-.13h.11l-.07,0s0,0,.07,0,.07,0,.07,0l-.07-.05.09-.05h.18a1.22,1.22,0,0,0,.34.09.51.51,0,0,1,.32.15h.14a8.29,8.29,0,0,1,3.65,1.13l.25.15a.34.34,0,0,0,.18.1c.1,0,.14.06.14.08l1,.82L54.6,7l.16.13.31.4q.18.24.3.43l.23.38.21.38c.07.13.15.27.25.43a1.19,1.19,0,0,0,.07.39q.07.21.15.41l.15.39a.93.93,0,0,1,.07.32l0,.3.05.41c0,.14,0,.28,0,.41s0,.22,0,.28,0,.21,0,.36a3.27,3.27,0,0,1-.08.56l-.07.24-.06.29a2,2,0,0,1-.08.27l-.18.58a3,3,0,0,0-.08.34l0,.25a2.53,2.53,0,0,1-.13.28,5.75,5.75,0,0,1-.34.59,5.83,5.83,0,0,1-.46.63,1.3,1.3,0,0,1-.49.39q0,.11-.16.22a3.38,3.38,0,0,1-.36.21l-.38.17-.24.09-.38.11a1.17,1.17,0,0,0-.27.08,1.08,1.08,0,0,1-.29.08l-.31,0h-.53l-.52,0-.35,0-.22,0q-.11,0-.13.05l-.08-.12a.16.16,0,0,0-.14-.06h-.22c-.15,0-.22,0-.24.07l-.11-.36h-.07a.11.11,0,0,1,0,.07l0,.05q0,.09-.05.09h-.09l0,.05,0,0-.07.27-.07-.55a.91.91,0,0,1-.48-.13c-.14-.08-.21-.16-.21-.24a.31.31,0,0,1,.05-.14l.07-.11-.09,0-.18.27s0-.1-.11-.16l-.05.16.25.44Q48.64,17.72,48.35,17.7Zm-1-13.37s.07,0,.07.05,0,0-.07,0-.05,0-.05,0S47.33,4.36,47.37,4.33Zm.05,13.44s0,0-.05,0-.05,0-.05,0Zm0,.38.15,0-.09,0s-.07,0-.07,0A.05.05,0,0,0,47.44,18.15Zm.05-14s.05,0,.05.09,0,.07,0,.07a0,0,0,0,1-.05-.05Zm0,13.39s-.05.06-.05.07,0,.11.07.11.05,0,.05-.11Zm0,.71s.05,0,.05.07,0,.05,0,.05a0,0,0,0,1-.05-.05Zm0-13.52s0,0,0,.05,0,.11.07.11a.06.06,0,0,0,.07-.07C47.66,4.74,47.63,4.71,47.55,4.71Zm0-.42H48l-.22,0,.05.07-.05,0-.15,0ZM48,17.59s0,0,0,.11,0,.07,0,.07-.05,0-.05-.07Zm2.62-1.74.09.07a.1.1,0,0,0,.07,0l.18,0,.22,0s.12.05.33.05l.27,0a.33.33,0,0,1,.2,0h.09L52,16c0,.06,0,.09.07.09l0-.09,0-.07h.27l.34-.16a.55.55,0,0,0,.22-.09q.11-.07.11-.15l-.13-.11.13,0a.3.3,0,0,0,.2-.12,1.8,1.8,0,0,0,.2-.26,2.32,2.32,0,0,0,.15-.29.64.64,0,0,0,.06-.2.26.26,0,0,1,.05-.14l.13-.17.14-.16.08-.11.09-.29q.05-.16.1-.27a.26.26,0,0,0,0-.16v-.07l-.07,0a1.48,1.48,0,0,1,0-.3,1.38,1.38,0,0,0,0-.25l.07-.11V12a2.24,2.24,0,0,0-.07-.59,3.61,3.61,0,0,0-.15-.45,1.91,1.91,0,0,0-.15-.3.5.5,0,0,1-.07-.13l-.15-.29a2.41,2.41,0,0,1-.17-.33c-.07-.15-.14-.29-.22-.44a3.51,3.51,0,0,0-.24-.38q-.12-.16-.23-.16c0,.06,0,.11-.14.14s-.14.08-.15.14l-.11,0-.24-.14a1.54,1.54,0,0,1-.36-.3l-.13,0q-.13.05-.32.43a5.79,5.79,0,0,1-.61.9,5,5,0,0,0-.65,1,2.57,2.57,0,0,0-.22.7l0,.51a2.16,2.16,0,0,0,0,.44c0,.17,0,.29,0,.36a2.18,2.18,0,0,1-.18.35.7.7,0,0,1-.31.26l-.2.09-.05.05a.25.25,0,0,1-.17-.14.45.45,0,0,0-.12-.18l-.16.34a.46.46,0,0,0,0,.16.34.34,0,0,1,0,.18l-.09.33a.38.38,0,0,1,0,.16.36.36,0,0,0,0,.13v.24a.07.07,0,0,1,0,.05.11.11,0,0,1,0,.07v.11a1,1,0,0,1,0,.2.46.46,0,0,1-.05.18l.09-.09H49l.16,0,.11,0,.07.05a1.32,1.32,0,0,0,.38.05.39.39,0,0,1,.33.18h.11a.18.18,0,0,0,.1-.05.37.37,0,0,1,.12-.07.12.12,0,0,0,.11-.05Zm-2.07,0s0,0,0,0,0,.11.05.11.07,0,.07-.05S48.61,15.83,48.55,15.83Zm.11-.4a.07.07,0,1,1,0,.15s-.05,0-.05-.07Zm.6.6a0,0,0,0,0,0,0s0,.05,0,.05A.12.12,0,0,0,49.26,16Zm.42-.07s0,0,0,0v.67a.45.45,0,0,0,0,.16.77.77,0,0,1,0,.27.44.44,0,0,0,0-.18v-1Zm0-8.3a.45.45,0,0,0,0,.16l.07.05,0,.05a.36.36,0,0,0,.08.15c.05.07.09.11.1.11l.16-.07V8s0-.06-.07-.07l-.25-.33s-.05,0-.05-.07h-.07A.4.4,0,0,1,49.71,7.65Zm.13,3.43s0,0,0,.05Zm0,4.87s-.05,0-.05.07,0,.09.05.09.07,0,.07-.09ZM50,10.48s0,0,0,.05,0,.07.05.07a.06.06,0,0,0,.07-.07S50.07,10.48,50,10.48Zm0-.38a0,0,0,0,0,0,0S50,10.14,50,10.1Zm.07.18q-.09.09-.09.11s0,.05.09.05l0,.11a.24.24,0,0,0,0,.13l-.07,0,.07.42,0-.05a1.15,1.15,0,0,0,.06-.15l.05-.15a.4.4,0,0,0,0-.09l.07,0a.44.44,0,0,1,.11-.24l.18-.24a1.57,1.57,0,0,0,.23-.35,1.7,1.7,0,0,0,.1-.23l.42-.82a.15.15,0,0,0,0-.09.21.21,0,0,0-.14-.18A.54.54,0,0,0,51,8.45h-.27l-.16,0s0-.05,0-.05l0-.09a.26.26,0,0,1-.17-.07.24.24,0,0,0-.15-.07l-.05,0q-.13,0-.13.27a.15.15,0,0,0,0,0,.27.27,0,0,1,0,.08l0-.05a.19.19,0,0,0,0,.11.18.18,0,0,1,0,.09l-.07,0q0,.15,0,.27c0,.08,0,.14,0,.16a1.06,1.06,0,0,0,0,.27,1.18,1.18,0,0,1,0,.2,1.15,1.15,0,0,1,0,.21,1.26,1.26,0,0,0,0,.25.14.14,0,0,0,0,.09.15.15,0,0,1,0,.09Zm.11-1.2s.05,0,.05.07,0,.07,0,.07l-.05,0Zm.05.24s.07,0,.07.05a.06.06,0,0,1-.07.07Zm.16-.8s0,0,0,.07,0,.09,0,.09-.09,0-.09-.11Zm0,1.67a.06.06,0,0,1,.07.07q0,.11-.05.11c-.06,0-.09,0-.09-.13Zm1.73,7s-.05,0-.16.05l-.16,0H52l.14,0q.11,0,.13-.09l-.07,0Zm.16-8.3s0,0,0,.05,0,.07,0,.07A0,0,0,0,0,52.39,9Zm0-.09h.07V8.76Zm.45,0h-.09s-.05,0-.05,0l-.05.05ZM52.89,17h-.07s0,.07,0,.07Zm.64-10.21-.09-.05a.07.07,0,0,0-.07-.05l-.11-.05c0-.07,0-.11-.07-.11s0-.07,0-.07-.07.06-.07.07a.24.24,0,0,0,.06.16.39.39,0,0,0,.17.11l.11.07h.07q0,.11.07.11s0,0,0-.11A.06.06,0,0,0,53.53,6.78ZM54,16.32l-.56.33-.19.13-.17.13h.07l.47-.29s.12-.05.22-.16Zm-.84-9.81a.19.19,0,0,1,0,.11Zm.69,8.34s0,0,0,.05,0,.07.05.07l-.11.11-.2.4,0,.05a.86.86,0,0,1-.15.24l-.07.07h.07a.15.15,0,0,0,.12-.05l.12-.11.2-.18a.1.1,0,0,1,0-.07l.09-.09s.08,0,.1-.13a1.12,1.12,0,0,0,0-.24.11.11,0,0,0,0-.07v-.09s0,0,0-.07v-.16l0,.05a.35.35,0,0,1-.07.16l-.11.15Zm-.36-8s0,0,0-.07Zm.13.15a.39.39,0,0,0,.13.07l0,.05V7S53.73,7,53.62,7Zm.65,8.39-.05,0-.31.25a.28.28,0,0,0-.13.07l-.11.09v.07a.79.79,0,0,0,.28-.21.41.41,0,0,1,.23-.15Zm0,1.14,0,.05s0,.07.05.07l-.15.07q0,.11-.05.11a1.27,1.27,0,0,0-.19.16l-.07.07-.06,0-.11,0h.2l.13-.05a.3.3,0,0,0,.21-.1l.2-.22.2-.22a.29.29,0,0,1,.21-.1l.6-.71a.27.27,0,0,1,.05-.09.27.27,0,0,0,.05-.09v-.07a.86.86,0,0,0-.26.28l-.25.35-.15.15-.44.27s0,0-.05.07l0,.05,0-.05Zm-.38-9.41a.06.06,0,0,0-.07.07c0,.06,0,.09.07.09s0,0,0-.05ZM54,7.3a.06.06,0,0,0,.07.07Zm.13.07s0,0,0,.11,0,.09.07.09.05,0,.05-.09A.16.16,0,0,1,54.13,7.38Zm.15,8.19s0,.06-.07.08-.07,0-.07.06h.09s.07,0,.07-.05Zm-.09.67s0,0,0,0l.07,0a.19.19,0,0,0,0-.11Zm.42-1.69a0,0,0,0,0-.05.05s0,0,.07,0l-.07.11,0,.16h-.15l-.09.31.15-.07a1,1,0,0,1,.12-.18.71.71,0,0,0,.14-.27l.2-.25.18-.51v-.07s0,0-.05.05l-.09.16a1.18,1.18,0,0,1-.1.19l-.11.19a.35.35,0,0,0,0,.14ZM54.51,8l.13.19.13.19,0,.05a.83.83,0,0,0-.16-.36.38.38,0,0,0-.2-.16Zm0,7.36.05-.11h-.07Zm.13-.29s-.07,0-.07.05,0,.05.07.05.09,0,.09-.05Zm0,.76s-.05,0-.05.11,0,.07.05.07.09,0,.09-.07Zm.18-8.36a.15.15,0,0,0-.05.09.06.06,0,0,0,.07.07s0,0,0-.07Zm.73,3.58v.2a.5.5,0,0,0,0,.22l0,.25-.11.93q-.05.29-.15.64a2.13,2.13,0,0,0-.1.56,1.3,1.3,0,0,1-.28.57.72.72,0,0,0-.19.5s.06,0,.06,0,0,0,.06,0l.07-.11a1.26,1.26,0,0,1,.05-.17l.13-.35.14-.34a.9.9,0,0,1,.08-.17.53.53,0,0,1,0-.13l.05-.2.05-.21a.63.63,0,0,0,0-.15l.07-.64.05-.31a1.14,1.14,0,0,0,0-.27V11a3,3,0,0,0,0-.49,3.9,3.9,0,0,0-.14-.55,1.46,1.46,0,0,0-.25-.48.49.49,0,0,0,0,.07.57.57,0,0,1,0,.09,1.59,1.59,0,0,0,0,.24q0,.18.07.41t.08.45Zm-.69-2.53v.2s0,0,0,.05l.2.31L55,8.7a.09.09,0,0,1-.09-.07Zm.05,5.14s-.05,0-.05,0,0,.07.09.07.07,0,.07,0S55,13.68,54.95,13.68Zm.11-.2a.1.1,0,0,0-.11.11s0,.05.11.05a0,0,0,0,0,.05-.05Zm.07-.38a0,0,0,0,0-.05.05.06.06,0,0,0,.07.07,0,0,0,0,0,.05-.05Zm.07-.16a.16.16,0,0,0-.05.11s0,0,.05,0,.07,0,.07,0Zm0-4.81s-.07,0-.07.05,0,.07.11.07,0,0,0,0Zm0,1.11s0,0,0,.05,0,.13.07.13l0-.07Zm.07,5.58s-.07.07-.07.09,0,.07.09.07,0,0,0-.05Zm.09-3.07a.05.05,0,0,0,0,.11ZM55.42,15a.2.2,0,0,0,0,.09s0,.07,0,.07.11,0,.11-.05Zm.16-.13c-.06,0-.09,0-.09.07S55.58,14.94,55.58,14.86Zm.09-.24a0,0,0,0,0-.05.05Z" transform="translate(-2.17 -2.29)"/><path d="M58.84,12.27l.05,0s.07,0,.07,0l.07-.05-.14-.15L59,12c0-.07,0-.12,0-.13l0-.18L59,11.6l.05-.07s0,0-.07-.08a.2.2,0,0,0-.18-.08h-.07s-.07,0-.14-.11L58.36,11l-.22-.25L58,10.62l-.33-.44a4.1,4.1,0,0,0-.49-.69L55.45,5.81q0-.29-.09-.29s-.14-.58-.05-.58V4.57a2.57,2.57,0,0,1,0-.44,2.37,2.37,0,0,1,.23-.53l.13-.22a1.08,1.08,0,0,0,.19-.16l.39-.36q.22-.2.44-.36a.66.66,0,0,1,.36-.16l.05,0,.07,0,.14.13a.49.49,0,0,0,.08.13.68.68,0,0,1,.1.16l2.54,4.67a5.56,5.56,0,0,1,.31.52q.13.25.2.25s0-.08,0-.09l.09-.45.05.15.74-1.24V6.51a.39.39,0,0,1,.09-.2L61.77,6,62,5.71A.6.6,0,0,0,62,5.44L62.75,4l.13-.15H63q-.11.07-.11.15a.09.09,0,0,0,.07.06h.11l.25-.36h.07v.07s0,0,0,.1a.82.82,0,0,0,0,.12l0,.07L63.53,4l-.11.13a1.12,1.12,0,0,0-.07.23c0,.1,0,.16,0,.17v.07l.07-.07a.59.59,0,0,1,.09-.25A1.77,1.77,0,0,1,63.66,4l.07,0v.11a.23.23,0,0,0-.05.12.62.62,0,0,0,0,.12s0,.05.07.05v.56s-.06.07-.1.2a1.39,1.39,0,0,0-.06.24v.07L64,4.61a.65.65,0,0,0,.13-.24l0,.07-.09.22A1,1,0,0,0,64,5v.13l.11,0,.11-.22a.31.31,0,0,1,0-.13l0-.05h.09l0-.2L64.58,4v.13a.21.21,0,0,1,0,.09.22.22,0,0,0,0,.09v.14a.65.65,0,0,1,.13-.21A.56.56,0,0,0,64.78,4h.11l-.07.25-.1.36c0,.15-.09.28-.14.42a.54.54,0,0,1-.13.24l-.22.6a1.3,1.3,0,0,1-.19.68,1.33,1.33,0,0,0-.19.7l-.11.15a.32.32,0,0,1-.09.24.26.26,0,0,0-.09.18V8a.29.29,0,0,1,0,.09s-.06.07-.1.07h-.11s-.07.05-.07.16v.15a.81.81,0,0,1-.09.34c-.06.13-.09.18-.09.15V8.8L63,8.88a.32.32,0,0,0-.18.27l.05.2-.34.45V10H62.4s-.08.07-.13.21l-.13.35v.15s0,0,.06-.08a.59.59,0,0,0,.12-.21v.07a1.94,1.94,0,0,1-.2.51,1.38,1.38,0,0,1-.27.34l-.07.07-.13.2,0,.09h.09a.22.22,0,0,0-.05.16v.42a.81.81,0,0,0,0,.12.86.86,0,0,0,0,.14V14l-.07-.05s0,0,0,.11,0,.1,0,.11v.07a1.29,1.29,0,0,1,0,.31l0,.2.07.07-.07,1.07L61.6,16l-.11.45v.53a1.61,1.61,0,0,1-.06.45,1.45,1.45,0,0,1-.12.31l0,.05v-.65L61.17,17l0,.11-.05.11v.2a1.07,1.07,0,0,1-.05.29.39.39,0,0,0-.07-.13.27.27,0,0,0-.14-.07h-.07v-.09l.07,0a.43.43,0,0,1,0-.12.3.3,0,0,1,.06-.12.18.18,0,0,0,0-.13V17l-.18.34V17h-.18v.36a1.37,1.37,0,0,0-.1-.36,1,1,0,0,1-.08-.25V14.6l-.18-.29v.16a.43.43,0,0,0,0,.11.44.44,0,0,1,0,.11v.62l-.09.05-.09.4v-.18q-.13,0-.22.58l-.07.6a3.28,3.28,0,0,0,0,.7,1.8,1.8,0,0,1-.14.77,5.28,5.28,0,0,1-.13-1.2l-.11-.15v.73l-.09-.36h-.09s0-.18,0-.45,0-.61,0-1,0-.78,0-1.19,0-.79,0-1.13L59,13.35m-.15-1.42s0,0,0,.07,0,.07,0,.07-.05,0-.05-.07ZM59,13c-.06,0-.09,0-.09,0Zm.47,1.29s-.05,0-.05.11a0,0,0,0,0,.05.05s.07,0,.07-.05Zm.36-.07a.06.06,0,0,0-.07.07c0,.06,0,.09.07.09s.05,0,.05-.09Zm.07.84v-.38l.11.13v-.74a1.58,1.58,0,0,0-.05.24l0,.2a.06.06,0,0,0-.05,0Zm.11,0s0,0,0,.11l0,.29a1,1,0,0,0,.05-.2.17.17,0,0,0,0-.07A.54.54,0,0,1,60,15.07Zm0,1s.05,0,.05.07,0,.11-.05.11,0,0,0-.11Zm0,.24s.05,0,.05.07,0,.07-.05.07,0,0,0-.07Zm.24-2.4-.09.05v.07Zm0,1.87s0,0,0,.07,0,.07,0,.07-.05,0-.05-.07Zm.05,1.29s0,0,0,.07,0,.07,0,.07-.05,0-.05-.07Zm.33.44s0,0,0,.07,0,.09,0,.09-.05,0-.05-.09Zm.07-6s-.05,0-.05.07,0,.09.05.09a.11.11,0,0,0,.05-.09Zm0,2.42a0,0,0,0,0-.05.05s0,.07.05.07Zm0,.6s-.05,0-.05.07,0,.07.05.07.05,0,.05-.07Zm.05.82s0,0,0,.11,0,.07,0,.07a.06.06,0,0,0,.07-.07Zm.16-3.91s-.05.07-.05.22,0,.18.05.18a1,1,0,0,0,0-.2A.86.86,0,0,0,60.91,11.46ZM61,14.54a.07.07,0,0,0,0,.15s0,0,0-.07Zm0-5.2v.07L61,9.35l0-.09Zm.05-.8s0,0,0,.13,0,.07,0,.07.05,0,.05-.07ZM61,15s0,0,0,.07,0,.07,0,.07.05,0,.05-.07Zm0-5.27a.78.78,0,0,0,.05-.18A0,0,0,0,0,61,9.49Zm.05,0s-.05,0-.05.07v.07l0,.11s0,.07,0,.07a.06.06,0,0,0,.07-.07.16.16,0,0,0-.05-.11s.05,0,.05-.07Zm0-1.27s0,0,0,.05a0,0,0,0,0,0,0s.07,0,.07,0Zm.22.22s-.07.09-.15.27l-.11.27.11.05v.07a.34.34,0,0,0,.08-.15.64.64,0,0,0,0-.14h-.11Zm-.15,3.42s0,0,0,.05l0,.05Zm.15-1.69s0,0,0,0S61.29,10.45,61.31,10.4Zm0,.53s0,0,0,.07,0,.09,0,.09,0,0,0-.09Zm0,3.38h.07s0,0,0,0l0-.2Zm.18-5.9a.15.15,0,0,1-.09.05v.07Zm0-.65s-.05,0-.05.11a0,0,0,0,0,.05.05s0,0,0-.05Zm.25,2.05-.05.07-.09.12a.32.32,0,0,0-.07.14v.15Zm-.16-1.62.05,0V8.08Zm.05,2.43s-.05,0-.05.07,0,.11.05.11,0,0,0-.11Zm0,.25s-.05,0-.05.07a0,0,0,0,0,.05.05s0,0,0-.05Zm.18-.87-.07.05s-.05.06-.08.18a.92.92,0,0,1,0,.16h.07a.66.66,0,0,1,.07-.21A.4.4,0,0,0,61.79,10Zm.36.13q-.13,0-.14.15l-.15.2a1.92,1.92,0,0,0-.19.44c0,.15-.06.22-.06.24v.33l.05,0s0,0,0-.09a.26.26,0,0,1,0-.15v-.07a.7.7,0,0,1,.07-.14.68.68,0,0,1,.16-.2Zm-.29-2.58-.07.11s-.07.08-.07.09v.07Zm-.07,1.94s-.05,0-.05.09,0,0,.05,0,.07,0,.07,0Zm0,.69s-.05,0-.05.07,0,0,.05,0,.07,0,.07,0Zm0,4a.07.07,0,1,1,0,.15s-.05,0-.05-.07Zm.07-2.8s.05,0,.05.09,0,.07-.05.07,0,0,0-.07Zm.09-4s-.05,0-.05.07a0,0,0,0,0,.05.05s0,0,0-.05ZM62,9.8s-.05,0-.05.07,0,.11.05.11,0,0,0-.11ZM62,10.87s-.05,0-.05.07A0,0,0,0,0,62,11s0,0,0-.05Zm0-2.56a.24.24,0,0,1,0,.09l0,.07.13-.16Zm.29-1.8a.59.59,0,0,0-.13.26.64.64,0,0,1-.16.3v.07a.75.75,0,0,0,.18-.29A1.52,1.52,0,0,0,62.33,6.51Zm-.18,2.83s-.07,0-.07.11,0,0,.07,0,.05,0,.05,0Zm.13.35-.05.11a.11.11,0,0,0,0,.07v.07a.47.47,0,0,1,.07-.13.27.27,0,0,0,.05-.09Zm0-.64s-.05,0-.05.09a0,0,0,0,0,.05.05s0,0,0-.05Zm.05-1.38s-.05,0-.05.07,0,.07.05.07,0,0,0-.07Zm.07-1.42s-.05,0-.05.07,0,.11.05.11.05,0,.05-.11Zm0,1.89s-.05,0-.05.07,0,.09.05.09.05,0,.05-.09Zm.05,1.18a.63.63,0,0,1-.11.16A.17.17,0,0,0,62.46,9.33Zm.05.76,0,.09,0,.09H62.4A.17.17,0,0,1,62.51,10.09Zm0-2.27s0,0,0,.09,0,.07,0,.07.05,0,.05-.07Zm.22-2.45a.27.27,0,0,1-.11.17.27.27,0,0,0-.11.19h.09L63,5.37Zm-.13.44s-.05,0-.05.11,0,0,.05,0,0,0,0,0Zm0,1.87s-.05,0-.05.07,0,.07.05.07,0,0,0-.07Zm.07-.84s-.07,0-.07.09,0,.11.07.11,0,0,0-.11Zm.05,1.84-.05.05a.23.23,0,0,0-.07.16V9A.42.42,0,0,0,62.75,8.68Zm0-4.54s0,0,0,.11,0,.07,0,.07.05,0,.05-.07Zm0,3.27s0,0,0,.07,0,.07,0,.07.05,0,.05-.07ZM63,5c-.07,0-.11.08-.11.09Zm.09,1.67s0,0,0,.09,0,.05,0,.05a0,0,0,0,0,.05-.05Zm.24-2.42-.14.13-.09.34a.12.12,0,0,1,.09,0l.09-.24Zm.22,1.36-.05,0S63.49,5.65,63.53,5.61Zm.13.58c-.06,0-.09,0-.09.07Zm.07.89s-.05,0-.05.07,0,.11.05.11,0,0,0-.11Zm.15-1.54a.1.1,0,0,0,0,.07l-.11.13s0,.06,0,.15,0,.14,0,.16a.56.56,0,0,1,.1-.12.33.33,0,0,0,.08-.25Zm0,.65s-.05,0-.05.07,0,.07.05.07.05,0,.05-.07Zm0-2.47s.05,0,.05,0S63.89,3.76,63.86,3.72Zm.05.25S64,4,64,4A0,0,0,0,1,63.91,4Zm.07-.4s0,0,0,0S63.94,3.59,64,3.57Zm.22,1.51c-.06,0-.09,0-.1.1s0,.13,0,.19Zm0-.22s0,0,0,.07,0,.05,0,.05.09,0,.09-.05Zm.27,0-.05,0,0,.05c-.06,0-.09,0-.09.14h.09Z" transform="translate(-2.17 -2.29)"/><path d="M81.67,7.69a.11.11,0,0,1,0-.07q-.09-.45-.15-.9t-.15-.9h-.11l0,.15V5.71l0-.09-.05,0q-.11.24-.2.48l-.18.5a1.33,1.33,0,0,0,0,.16,1.32,1.32,0,0,1,0,.16l-.13-.09L80.58,7l0,.05.15-.07,0,.07a1.52,1.52,0,0,1-.3.45,1.24,1.24,0,0,0-.28.47V8.1a.88.88,0,0,1,0,.16l-.05.11,0,.25L80,8.72l-.09-.09a.78.78,0,0,0-.17.32,2.25,2.25,0,0,0-.06.35v.22a1.06,1.06,0,0,1,0,.2.53.53,0,0,0,0,.2,4.55,4.55,0,0,0,.22-.51,4.62,4.62,0,0,1,.22-.51q.05-.27.12-.55a2.39,2.39,0,0,1,.19-.53l0-.09,0,.05.05.05a2.2,2.2,0,0,1-.11.39c0,.13-.09.26-.13.39s-.13.4-.2.58l-.22.56a1.29,1.29,0,0,1-.13.37,2.32,2.32,0,0,1-.2.32l-.15-.14a.16.16,0,0,0-.06.06l-.06.08q-.09.26-.16.54t-.16.54l-.07-.09.09-.09-.09-.11-.09.35.05,0,.09-.05c0,.1,0,.19-.06.29a1.74,1.74,0,0,1-.08.29,2.34,2.34,0,0,0-.36.69q-.13.38-.22.74v.27a1.89,1.89,0,0,1-.09.45l-.15.45a.73.73,0,0,0,0,.13A.79.79,0,0,1,78,15l0,.09v.07l-.05.27h.13l0,.18-.24,0,0,.07,0,.05-.18,0,.07-.25h-.13a.07.07,0,0,1,0,0,.07.07,0,0,0,0,0l-.07.07-.11-.16.07-.11-.05-.18-.22.11a.59.59,0,0,0,0-.18V15q-.09-.29-.18-.31a1.37,1.37,0,0,0,0,.25L77,14.77a.87.87,0,0,0,0-.16v-.15l.05-.09L76.93,14l-.82-2q-.29-.71-.43-1.07a5,5,0,0,1-.16-.48.89.89,0,0,1,0-.19,1.24,1.24,0,0,1-.16-.28,1.89,1.89,0,0,1-.09-.3L74.29,8l-.14-.09L74,8l-.05-.16a.76.76,0,0,0-.33-.4q0,.31-.06.6t0,.6l0,.37a3.58,3.58,0,0,0,0,.37,1.62,1.62,0,0,1,0,.25,1.22,1.22,0,0,0,0,.2l0,.09,0,.05c0,.08,0,.16,0,.24a1.23,1.23,0,0,1,0,.24A8.6,8.6,0,0,1,73,12.09q-.25.79-.45,1.61l-.07.33a1.5,1.5,0,0,0,0,.33l-.16,0,0,.11v.15a.58.58,0,0,0,0,.15l0,.24a1,1,0,0,1-.16.44L72,15.21A1,1,0,0,0,72,15a.45.45,0,0,1,.06-.2.73.73,0,0,0-.15.21.72.72,0,0,1-.15.21l-.2.38q-.09.53-.21,1t-.19,1l-.09-.16-.16-.05L71,17l-.15.36-.05.09,0-.18,0-.09V17l0-.13v-.42a.8.8,0,0,1,0-.21.81.81,0,0,0,0-.21.55.55,0,0,1,0-.16.64.64,0,0,1,0-.18,1,1,0,0,1,0-.14,1,1,0,0,0,0-.14l0-.12a.45.45,0,0,0,0-.12l-.11-.11a.32.32,0,0,0,0-.07.28.28,0,0,1,0-.07q.05-.67.1-1.34T71,12.25l0-.34a2.78,2.78,0,0,1,.05-.34v-.24q0-.24,0-.45t0-.45a.3.3,0,0,1,0-.07.3.3,0,0,0,0-.07.84.84,0,0,0,0-.26.83.83,0,0,1,0-.26V9.67c0-.06,0-.12,0-.18a1.82,1.82,0,0,1,0-.18l.05-.36a.92.92,0,0,1,0-.18V8.47l.11-.27-.11-.05q.05-.44.12-.87t.1-.87L71.3,6.3h-.07A.37.37,0,0,1,71,6.21.23.23,0,0,1,71,6a.85.85,0,0,0,0-.15V5.74a.27.27,0,0,1,.11-.23.41.41,0,0,1,.25-.08,1.06,1.06,0,0,0,.3-.31.56.56,0,0,0,.06-.25l.22-.31V4.38l-.13-.09V4.2L72,4.11a1.88,1.88,0,0,0,.27-.39l.22-.41.05-.15,0,.18a.26.26,0,0,0,.16-.08l.11-.15L73,3a.25.25,0,0,1,.15-.08V3l.05,0,.15,0L73.46,3l.14,0,.24,0-.05-.09.09-.11.05.11L74,2.82l.16-.11h.14l.22.09H75l.16.06a.29.29,0,0,1,.13.1l.27.24.27.22.31.51.16.18.15.18-.15.22-.09.36V5l.11.11.15.24a1.7,1.7,0,0,1,.18.36l.4.64.23.4a4.21,4.21,0,0,1,.21.4.4.4,0,0,1,.05.13.18.18,0,0,0,.07.11,2,2,0,0,0,.21.64,3.07,3.07,0,0,1,.25.62l.11-.09A2.48,2.48,0,0,1,78.42,8q.16-.27.31-.58l.09-.2a.83.83,0,0,1,.11-.35l.18-.32,0-.07.18-.31a2.7,2.7,0,0,1,.2-.31v.07a4.58,4.58,0,0,1-.22.56,4.54,4.54,0,0,0-.22.56l0,.25L79,7.45l-.09.16v.07l0,.16L79.31,7a5,5,0,0,0,.25-.55q.11-.28.24-.57L80,5.38a3.6,3.6,0,0,1,.22-.46q.13-.23.24-.46l.16.15.05,0,.13,0v.18l0,.05L81,4.61l.18-.15.05.07-.07.16-.05-.05L81,4.71l.11.05,0,.11H81V5l.11.16L81,5.43l0,.15.13-.07.09-.16,0-.11,0-.18a.53.53,0,0,0,.16-.33.34.34,0,0,1,.16-.27l-.18.42,0,.36-.09.09.05.18a2.21,2.21,0,0,1,.2.59,5.06,5.06,0,0,1,.07.61l0,.2,0,.11.13.05v-.2l.09-.07a1.74,1.74,0,0,1,.08.29c0,.1,0,.19.06.29l0,.07,0,.38L82,8a.66.66,0,0,1,0,.11.21.21,0,0,1,0,.09.46.46,0,0,0,0,.15v.33l0,.16a.41.41,0,0,0,.07.15q0-.51,0-1t0-1V6.7a1.17,1.17,0,0,0-.05-.21,1.24,1.24,0,0,1-.05-.19l0,.18-.11-.09V6.3L82,6.14l0-.05v-.2l0-.07h-.09l.05-.07L82,5.8a1.56,1.56,0,0,1,0-.25,1.67,1.67,0,0,0,0-.25.42.42,0,0,0,0-.08.42.42,0,0,1,0-.08L82.16,5l.05,0,.13.14.07.2.05,0,0-.05-.05-.2-.09-.16,0-.05,0-.07.07.07.11-.11-.09-.05-.07,0,0-.05,0-.16-.07-.15h-.07l-.16.07,0-.1a.51.51,0,0,1,0-.1.3.3,0,0,1,0-.07.3.3,0,0,0,0-.07h.09a1.33,1.33,0,0,0,0-.22V3.67l-.05-.4a1.12,1.12,0,0,0,0-.15,1.12,1.12,0,0,1,0-.15.55.55,0,0,1,0-.16.71.71,0,0,1,.22.33l.09.14.15-.07-.07.15a.72.72,0,0,1,.11.29.7.7,0,0,0,.11.29l.11.16.07,0a3.87,3.87,0,0,1,.15.52c0,.18.08.35.13.52l.13.09h.07l0,.09a1,1,0,0,0,.05.18l.07.18.09.05.05.2.05.11,0,.09.07.28c0,.09.05.18.09.28a2,2,0,0,1,.07.37,1.89,1.89,0,0,0,.07.37.9.9,0,0,1,.17.43c0,.15,0,.31,0,.46a.37.37,0,0,1,0,.12V8.9a.28.28,0,0,0,0,.12.29.29,0,0,1,0,.12l0,.16.08-.08.08-.08v.27a1.51,1.51,0,0,0,0,.27l0,.16c0,.07,0,.15,0,.23s0,.15,0,.23,0,.2,0,.3,0,.2,0,.3l.13-.07v.53l-.13.36v.09a2.23,2.23,0,0,1,0,.4,2.18,2.18,0,0,0,0,.4l-.13.25V13c0,.12,0,.24,0,.35s0,.24,0,.37l-.09.09q0,.18,0,.35v1L84,15.17l-.05-.25-.11,0,0,.18a.88.88,0,0,0,0,.26.91.91,0,0,1,0,.26l0,.13v.85c0,.08,0,.17,0,.25s0,.16,0,.25l-.13.07c0-.1,0-.2,0-.3s0-.2,0-.3l-.05.09-.16-.2-.07-.27v-.6a.93.93,0,0,0-.22.34.93.93,0,0,1-.22.35l-.11.07-.05-.09,0-.09a.42.42,0,0,0,0-.17l-.07-.17-.16-.16a.79.79,0,0,0-.07-.34.74.74,0,0,1-.07-.32l-.18-.78V14l0-.18,0-.05a1.2,1.2,0,0,1,0-.25v-.25a1.56,1.56,0,0,1,0-.29l-.05-.1,0-.1,0-.2a.83.83,0,0,1,0-.12.84.84,0,0,0,0-.12v-.11a2.67,2.67,0,0,0,0-.3,2.47,2.47,0,0,1,0-.3c0-.07,0-.15,0-.22s0-.15,0-.22V11A.11.11,0,0,0,82,11a1.64,1.64,0,0,1-.13-.43q0-.23-.05-.45c0-.13,0-.27,0-.4s0-.27,0-.4a7.12,7.12,0,0,1,0-.74,6.76,6.76,0,0,0,0-.71.35.35,0,0,0-.06.09.34.34,0,0,1-.06.09V7.76l.06-.08,0-.08-.13-.33v.18l0,.16ZM71,15.73a0,0,0,0,0,0,0,0,0,0,0,1,0,0v0l0,0v0l0,.16Zm0,1v.07l.11,0Zm.09-.29-.07,0,0,.07.11-.07Zm0-.49h.11a.47.47,0,0,1,0-.15v-.33l0,.25A1.42,1.42,0,0,1,71.12,15.92Zm.18-1.31-.05.09,0,.09.07-.09Zm0,.33-.07.11,0,.09.09-.11Zm.07-.76-.09.13,0,.05.11-.09Zm.05-6.63-.09.11.07,0,.09-.09Zm.09-.14-.07-.05v.07Zm.11,8.54.14-.09v.09q-.18.6-.33,1.29.05-.6.16-1.2a.07.07,0,0,1,0,0A.07.07,0,0,0,71.66,15.93Zm-.07-9.38a.34.34,0,0,0,0,.11.2.2,0,0,1,0,.11V7l.05-.25Zm.2-.35-.09.11.07.07.11-.07Zm0,8.74a.5.5,0,0,0,0,.1l0,.1v-.44A1,1,0,0,0,71.75,15Zm.05-.6h.07l0-.25,0,.13A.74.74,0,0,0,71.81,14.35Zm.13,1.58L72,16l-.13.13L71.81,16ZM71.82,5.81l.11-.07a.39.39,0,0,1,0-.08.46.46,0,0,0,0-.08l-.05-.05Zm.11,10.47h-.07l0-.09Zm.2-2.18-.09.14,0,.07.09-.07Zm.07,1.49-.11.35q0-.2.06-.41c0-.14,0-.28.06-.41L72.3,15a.41.41,0,0,0,.05-.13l.11-.09-.13.58a.28.28,0,0,0,0,.12A.13.13,0,0,1,72.21,15.59Zm.11-1.67a.58.58,0,0,1,0,.09.57.57,0,0,0,0,.09l.07-.09ZM74.15,8l0,.05v.09l-.13,0Zm0,.16.05,0-.05,0Zm.18.07-.13.15,0-.05Zm0,.2.05.07-.09.09-.07-.05ZM75.42,2.8l-.09.05,0-.05Zm2.25,11.61h.11l0-.51-.13.07c0,.07,0,.14,0,.22S77.67,14.34,77.67,14.41Zm.27-.16-.07.09.07.07.07-.07Zm.22-1.74-.09.09.07.09.05-.09Zm0,2.27,0,.25,0-.11Zm0,.35.07.05-.09.11-.07-.09ZM78.33,9l0,.09h.11Zm.07,2.94-.09.07.07,0,.09,0Zm.05-.38-.13.11.09.07.09-.07Zm.09,2.07.05.07-.07.18,0-.07ZM78.78,8a1.11,1.11,0,0,0-.24.44l.07-.05a.8.8,0,0,0,.05-.14.27.27,0,0,1,.07-.12Zm-.13,3.87-.09.07.07,0-.09.15.07.07.07-.07,0-.15.07,0Zm0,1.09v.29l-.09.07Zm.13-.71,0,.05,0,.09-.07.16-.05-.07,0-.09Zm0-3.87-.05.05.05.07.05-.07ZM79,12l.07.07-.09.11-.07-.07Zm.09-.16.07-.11-.07.18Zm.16-3.4-.07.05.07.07.07-.07Zm0-1.62.11.09L79.22,7l0-.07Zm0,4.72a.3.3,0,0,0,0-.07.28.28,0,0,1,0-.07l.13-.13Zm0-2.13.11-.16L79.38,9h-.11l0,.17A.8.8,0,0,0,79.22,9.39Zm.33,1.25,0,.09-.18.09v-.09l.1-.05Zm-.11.25,0,.07-.05.11,0-.09Zm0-4.6.07.09-.05.09L79.4,6.4Zm.07,1.54-.11.09,0,.09Zm-.07.94a.08.08,0,0,1,0,0,.08.08,0,0,0,0,0,0,0,0,0,0,0,0h0A.18.18,0,0,0,79.44,8.79Zm.13,2.73,0,.05-.07.13-.07-.07Zm0-1.74-.05.07.05.07.07-.07Zm.11-1.24-.11.05.07,0Zm0-2.65.11.15-.11.05-.07,0Zm.78.67q-.2.42-.38.85t-.38.85v.15l.11-.15a1,1,0,0,1,.08-.16,1,1,0,0,0,.08-.16l0-.07,0-.07a1.24,1.24,0,0,0,.09-.22l.13-.31,0-.09.07-.11.09-.27ZM79.67,11l0,.05,0,.05Zm.13-3.91-.05.15,0,.05.11-.09Zm.09,1.87,0,.11v.09a1.23,1.23,0,0,1-.16.36V9.43s0-.09,0-.14a.45.45,0,0,1,0-.14Zm0-3.69V5.14L80,5.09Zm.13.65,0,.18.13,0Zm.33-1.71.07.09-.07.09-.05-.09Zm-.05,1.24.16-.11,0-.09Zm.09-.73-.05.13.05,0,.09-.11Zm.15,1-.07.09.07.07.05-.09Zm0,.49-.05.09,0,.07.07-.05a.3.3,0,0,0,0,.07.3.3,0,0,1,0,.07l.16-.38L80.84,6l0-.16-.07.07a.31.31,0,0,1-.08.23.47.47,0,0,0-.12.21Zm.05-1.36L80.53,5,80.6,5,80.65,5Zm0,2.67.11.05-.11.09-.05-.05S80.56,7.61,80.6,7.54Zm.15-.16.05,0-.09.13-.07-.09Zm0-2.51,0,.11.05.05L80.82,5Zm.07-.95.09.07-.11.11L80.71,4ZM81,3.42l.07,0L81,3.6,81,3.49Zm0,.51,0,.09L81,4.11a.07.07,0,0,0,0,0s0,0,0,0Zm.09,2.16.07.13-.07.09-.05-.05Zm.16-2.16,0,.11L81.18,4Zm-.05-.33.05.07-.07.07Zm.13.07.05,0-.07.13-.05-.09Zm.49,7.3.13.13-.15.07-.05,0ZM81.89,5l0,.09-.07.11-.05-.07Zm0,.4.09.07-.07.16-.05,0V5.52Zm.07-2.09.07.07-.09.07h-.05Zm0,1.42.07.05-.09.05Zm.16,4.74a.2.2,0,0,0,0,.06.2.2,0,0,1,0,.06l0,.15V9.39Zm0,.51c0,.07,0,.15,0,.23s0,.15,0,.23l.07-.11a.2.2,0,0,0,0-.11,0,0,0,0,0,0,0,0,0,0,0,1,0,0Zm0,.73,0,.09,0,.07.09-.07Zm0,.44h.11L82.11,11Zm.11-6.65v.18l-.09-.07Zm0,6.92c0,.06,0,.12,0,.18a1.69,1.69,0,0,0,0,.18l.09-.2Zm0-6.2,0,.18.11-.09ZM82.25,12h-.09l.09.31Zm0-6.38-.07.11.07.05.05-.05Zm.05,7.1-.07.16.16-.09Zm0-4.76-.07.16.07.05.11-.07ZM82.31,2.8l.09.09,0,.07,0,.09-.05-.13Zm.18,6.34-.05.13.16,0Zm0,.36,0,.09,0,.09.09-.09Zm.07,1.42-.05.07,0,.11-.07.07.07.09.07-.13V11Zm.62,1h.11l0-.09c0-.06,0-.12,0-.19s0-.13,0-.19,0-.12,0-.19,0-.13,0-.19q0-.47-.09-1l-.11-1a.37.37,0,0,1,0-.12V8.3l0-.2a1.67,1.67,0,0,0-.09-.34V7.43q-.05-.29-.13-.56a4.19,4.19,0,0,1-.11-.56l-.07-.51c0-.07,0-.15,0-.23a.72.72,0,0,0-.08-.21l0,.18,0,.36,0,.15.07-.18V6c0,.06,0,.13,0,.21s0,.15,0,.23l.09-.15a.76.76,0,0,0,0,.18.68.68,0,0,1,0,.16.13.13,0,0,1,0,.05.13.13,0,0,0,0,.05l.05.09q.07.29.07.31l0,.16v.16a.44.44,0,0,1,0,.16v.13a.52.52,0,0,0,.05.24l.11.22.07.14a.31.31,0,0,1,0,.15l0,.16,0,.2L83,9l-.09-.15v.33a3,3,0,0,0,0,.33A1,1,0,0,1,83,9.23a1.1,1.1,0,0,1,.13.49v.36a1.06,1.06,0,0,1,0,.2,1.73,1.73,0,0,0,0,.25V11l.05.18v.09a.47.47,0,0,0-.29.22h.33Zm-.62-5.34-.05.05.05.09.09-.09Zm-.05,4.11,0,.09.05-.09,0-.18-.05-.07Zm.05-.82,0,.07v.27l.07-.16Zm.05-1.13-.07.09.05.09.05-.09Zm0,3,0,.15.05.05.07-.09Zm.05-3.25-.05.16.07-.05Zm0,7-.05.16.13-.05Zm0-1.51,0,.13,0,.05.07-.05Zm.07.8-.05.15.13,0Zm.07-4.22-.07.11.07.05,0-.09Zm0,4.65-.05.18.15-.05Zm.05-6.76-.05.16,0,.09,0-.13Zm0,5.4-.05.11.05,0,.09-.07Zm0-6.27.07.09-.05.16V7.72A.4.4,0,0,0,82.91,7.59ZM83,10l0-.11,0-.16c0,.07,0,.14,0,.22s0,.15,0,.22Zm0,.4L83,10.5l0,.07.07-.07Zm.07,6.3H83l0-.17a.16.16,0,0,1,.11-.12.62.62,0,0,0,0,.2A.2.2,0,0,0,83.11,16.7ZM83,12.43l0,.16.13-.07Zm.07.82-.05.09,0,.07.09-.07Zm.09.36-.09.11,0,.05.11-.09Zm0,.31-.05.07,0,.09.09-.09Zm0-1.14-.05.18,0,.05h.24l.11-.05a1.64,1.64,0,0,0-.11-.34.84.84,0,0,1-.07-.34.22.22,0,0,0,0-.08.26.26,0,0,1,0-.1l-.07.09a1.22,1.22,0,0,0,0,.21v.39ZM83.27,5l0,.05-.05.11-.05-.05,0-.05Zm.05,9.28-.07-.11-.05.09Zm0-8.56-.07.09.11,0Zm0,2.33-.05.13.05,0Zm0,5.38,0-.16h-.07Zm0,1.82,0,.29.07-.09Zm0-9.12-.05.16.05,0,.05-.07Zm0,2.23,0-.05a.05.05,0,0,0,0,0Zm.09,1.09V10q0,.15,0,.28c0,.09,0,.19,0,.28s0,.15,0,.22,0,.15,0,.22a2,2,0,0,0,0,.26.35.35,0,0,0,.13.23,1.13,1.13,0,0,0,0-.27,1.1,1.1,0,0,1,0-.27l-.07-.66-.07-.66Zm0-2.87,0,.05,0,.09.05-.09Zm0,2.49h.09q0-.13,0-.25t0-.25a.2.2,0,0,0,0,.09.59.59,0,0,0,0,.15.68.68,0,0,1,0,.16.07.07,0,0,1,0,0A.07.07,0,0,0,83.47,9Zm0,4.63v1.07a1,1,0,0,0,.11.31q0-.22,0-.45c0-.15,0-.3,0-.45l-.06-.27A.72.72,0,0,0,83.47,13.68Zm.11,2.38-.11.07.05.09.07-.09Zm0-9.27a.62.62,0,0,1,0,.09.52.52,0,0,0,0,.09.2.2,0,0,0,0,.09l0-.15Zm.05,8.92-.07.13.05,0,.07-.07Zm0-8.27-.07.09.07.05,0-.05Zm-.07,7.78v.31l.05.09a.6.6,0,0,0,0-.18,1.32,1.32,0,0,0,0-.16,1,1,0,0,1,0-.13Zm0-3.05v.16l.09.18.07-.16,0-.05c0-.1,0-.18-.07-.25l-.09-.24V12A.93.93,0,0,1,83.6,12.17Zm.09,4-.05.07h.07Zm0,.18-.07.09.07.09,0-.09Zm-.05-3.45c0,.13,0,.27,0,.4a2.18,2.18,0,0,0,0,.4l.05.33a.5.5,0,0,1,0,.18.89.89,0,0,0,0,.18q0-.25,0-.53c0-.18,0-.36,0-.53l0-.2-.05-.25Zm0,3,0,.11.05.07.07-.07Zm0-7.94-.05,0a.56.56,0,0,0,0,.09.58.58,0,0,1,0,.09l.05,0,.07-.09,0-.08Zm0,4.58-.07.09.05.09.07-.09Zm0-3.8,0,.13.05.05,0-.11Zm.07.78-.05.05A0,0,0,0,0,83.87,9.5Zm.05,5.14-.07.11.07.05,0-.05Zm0-3.2-.05.15.07,0Zm0,3.89v.18l-.07-.07Zm0-3.52,0,.09L84,12l.07-.07Zm.07,1.27-.07.2.07.13,0-.13Zm.07-1.64c0-.06,0-.11,0-.15a1,1,0,0,1,0-.15l-.05.18v.11l0,.09Zm-.07,1.42,0,.09,0,.05L84.2,13Zm.09,2.58,0,.11v.51l-.07-.18a1,1,0,0,1-.05-.18Zm0-3.47-.11.13.11.07,0-.11Zm0,.33-.09.05.07.07Zm0,1.31-.05.13.05,0,.09-.09Zm.11-1.09-.09.09.09.09,0-.09Zm0,1.4v.16l-.05.2,0-.05,0-.09,0-.14Z" transform="translate(-2.17 -2.29)"/><path d="M85.81,16.13a.39.39,0,0,0,0-.15l.2-.76s0-.06,0-.15l.09-.73-.16,0,.11-.07a.17.17,0,0,0,.13-.1.35.35,0,0,0,0-.14v-.11a.3.3,0,0,0,0-.07.34.34,0,0,1,0-.11l-.15-.13c.08,0,.14,0,.16,0l.05-.08a.11.11,0,0,0,0-.15l-.18,0s0,0-.15,0l-.2,0-.18,0,.18-.05a.55.55,0,0,0,.22,0l.07-.07.14-.13.08-.09.05-.27-.51,0,.13-.07.09,0,.49-.22s0,0,0-.05l0-.11.11-.15.13-1.42.09-.53q.07-.44.15-1t.37-1.84a12.41,12.41,0,0,1,.4-1.54q.1-.21.17-.4A1,1,0,0,0,88,5.16L88.14,5a1.69,1.69,0,0,0,.27-.5,4,4,0,0,1,.27-.59A5.09,5.09,0,0,1,89,3.35,1.11,1.11,0,0,1,89.56,3l-.09.76.44-.22a.35.35,0,0,0,0-.18.77.77,0,0,1,0-.2l0-.07s0,0,.07-.05l.13-.07.14.47.05-.67.24.55.13.07.05,0,.11,0q0,.13.07.13l.35,0,.15.05.16.05.11.09,0,.07a0,0,0,0,1,0,0l-.07.33a.44.44,0,0,0,.05.15l.13.2.16.27.91,2.13a3.65,3.65,0,0,0,.2.47q.22.47.67,1.38l.26.55a.38.38,0,0,1,0,.31L94,9.7a.76.76,0,0,1,.11.15,2.08,2.08,0,0,1,.14.31q.08.22.21.62t.36,1.09q.34,1.07.36,1.07l.07.15a1,1,0,0,1,.15.32s0,.14,0,.28l0,.22s0,0,0,.09,0,.07,0,.05l-.05.67h-.11l0,.2s0,0,0,.09v.15l0,.36H95l-.07.55s-.07,0-.07.09,0,.12,0,.13l.05.16-.09.07a3,3,0,0,0,.1.34l.1.29H94.9L94.75,17l-.18,0s0-.05-.07-.05l0,.24-.16-.09-.11.07A.17.17,0,0,1,94,17c0-.11,0-.2,0-.25l0-.29a.2.2,0,0,0-.11,0v-.16c-.06,0-.08-.09-.07-.13l-.05-.11V16l-.09-.07s-.05,0-.05.07l0,.11,0-.18a.93.93,0,0,1-.25-.09l-.14-.15-.13.13s0,0-.07-.08a.26.26,0,0,1-.05-.12l-.2-.62s-.05-.12-.16-.2a.41.41,0,0,1-.15-.38l-.15-.16a2.15,2.15,0,0,0-.19-.34A.69.69,0,0,1,92,13.7l-.25,0a1.9,1.9,0,0,0-.49,0l-.46.1-.41.11A1.11,1.11,0,0,1,90,14a1.24,1.24,0,0,1-.38.12l-.58.08-.62.08a3.67,3.67,0,0,0-.47.1l-.07.11a.2.2,0,0,0-.09.15l-.05.16a.55.55,0,0,0-.09.29l-.07.38c0,.13-.06.25-.08.35a.41.41,0,0,1-.06.19,2.92,2.92,0,0,1-.28,1.07q-.21.38-.26.38l0-.2-.09.16,0-.16q0-.18-.09-.2l-.07,0-.09,0-.11.09,0,.11a.32.32,0,0,0,0,.1.06.06,0,0,1,0,.06l-.4.35s0,.05-.08.08-.08.05-.08.06l-.13.2s0,.07-.05.05v-.44a.79.79,0,0,1,0-.32,1.94,1.94,0,0,1,0-.32q0-.09,0-.25a2,2,0,0,1,.07-.34l.11-.31Zm0-3.14h-.11l-.05,0,.05,0,.05,0Zm.07,4.34s-.06,0-.07.07a0,0,0,0,0,0,0s.07,0,.07,0Zm0,.51s.07,0,.05.07,0,.05-.07.05a.07.07,0,0,1-.05-.07Zm0-.84s-.05,0-.05,0a0,0,0,0,0,.05.05Zm0-1.13,0,.29c.06,0,.09-.05.09-.13Zm.11-.25a.05.05,0,1,0,0,.11s0,0,0-.05Zm.09.56s0,0-.05.07,0,.11,0,.11,0,0,0,.05,0,.07,0,.07.12,0,.13-.07,0,0-.09-.05.09,0,.09-.11Zm0-.91s0,0,0,.07l.07,0s0,0,0,0Zm.27.4-.13.24,0,.14c.07,0,.12,0,.13-.07Zm-.13,1.05v.36a2.59,2.59,0,0,1,.36-1,6,6,0,0,0,.47-1.14l0-.15,0,.11a1.92,1.92,0,0,1-.15.36Zm.47-2.2-.07.24a2.33,2.33,0,0,1-.12.32c0,.09-.06.15,0,.17l0,.27.14-.29,0-.16a.55.55,0,0,0,0-.09l.13-.36,0-.16Zm-.09.94,0,.07.11,0ZM86.83,11s-.07,0-.07.07,0,.09.05.09.07,0,.09-.07Zm0,.22,0,.31a.17.17,0,0,0,.07-.15Zm.31,5.07-.13.16s0,.07,0,.18a.7.7,0,0,1-.1.27l0,.18q.11,0,.17-.23c0-.15.07-.26.08-.34Zm.18-1.84q-.11,0-.11.07s0,.07.11.07.05,0,.05-.07ZM88.57,5l-.05.27a.14.14,0,0,0,.09-.15Zm.16-.62a.1.1,0,0,0,0,.07Zm.33,6.78-.13.15a.79.79,0,0,0-.13.29h.11a1.88,1.88,0,0,0,.44,0l.58-.09.58-.11.75-.16a4.41,4.41,0,0,1-.45-.92q-.15-.43-.25-.75A2.12,2.12,0,0,0,90.33,9a.53.53,0,0,0-.45-.23.37.37,0,0,0-.11-.1.28.28,0,0,0-.15-.06s-.1.06-.15.18a2.57,2.57,0,0,0-.15.45q-.06.26-.11.53c0,.18-.05.32-.06.43Zm1.6-8s0,0,0,.07,0,.09-.05.09-.08,0-.07-.09Zm.58,8.19-.35.08c-.12,0-.17,0-.17,0l-.13.05.71,0Zm.11.24s-.05,0-.05.07,0,.07.05.07.06,0,.07-.07Zm1.18,3.34s.05,0,.05.09,0,.07-.07.07a.05.05,0,0,1,0-.07Zm.05.27h.09l0,.11Zm.56.71c0,.06,0,.14.14.25l0,.16a.19.19,0,0,1-.15-.12.53.53,0,0,1,0-.12L93,16Zm.44-6.67,0,.14a0,0,0,0,0,.05-.05Zm.11.55s0,.07,0,.07a0,0,0,0,0,0,0S93.75,9.77,93.7,9.76Zm.47,7.14q0,.11.07.11Zm.13.27c.06,0,.09,0,.09.07s0,.1-.09.09-.05,0-.05-.11Zm.25,0s.07,0,.07.07,0,.1-.07.09-.05,0-.05-.11Zm.13-1.36-.05-.09s-.06,0-.07.07a.16.16,0,0,0,.05.11.2.2,0,0,0,.07.07.06.06,0,0,0,.07-.07Q94.75,15.83,94.68,15.83Zm-.05.07s.05,0,.05-.07Zm.13.09s0,0-.05.07,0,.09,0,.09.11,0,.11-.09Zm0,.29s0,0,0,.07l.05,0s.05,0,.05,0Zm.27-.2c.07,0,.11,0,.11.09s0,.05-.11.05,0,0,0-.05Zm.05.51c.06,0,.09,0,.09.11s0,.05-.11.05,0,0,0-.05Zm.05.56s.07,0,.05.07,0,.05-.07.05a0,0,0,0,1-.05-.05Zm0-.22s.07,0,.05.07,0,0-.07,0A0,0,0,0,1,95,17Zm0,.34a.11.11,0,0,1,.09.13s0,.07-.11.05,0,0,0-.07Zm0-3.71a0,0,0,0,0,0,0s0,.05,0,.05,0,0,0,0Zm.09,2,.15.11,0,.36a.24.24,0,0,1-.09-.16l-.05-.22Zm.09-1.49.05.05A0,0,0,0,1,95.33,14.06Zm.13-.22q.09,0,.09.07s0,.05-.11.05,0,0,0-.05Zm0,.36s0,0,0,0,0,0,0,0S95.42,14.24,95.42,14.21Zm.07.22s.05,0,.05,0,0,0,0,0S95.5,14.44,95.5,14.43Z" transform="translate(-2.17 -2.29)"/><path d="M102,13.77l-.07-.15-.07-.15a1.23,1.23,0,0,0-.43-.5,1.25,1.25,0,0,1-.43-.48l-.14-.11a.54.54,0,0,1-.1-.11l-.09.05a.59.59,0,0,0,.14.18l.17.15.29.33,0,.05.07.13-.11,0-.47-.49-.13,0,0-.07v-.07l-.09,0h-.13l0-.05-.13-.11,0-.05.25.18v-.16l.07,0a1.1,1.1,0,0,1-.15-.19,1.14,1.14,0,0,0-.15-.19v-.07h.09l-.05-.07-.27-.09,0-.07-.13-.13-.07,0L99.4,11h-.07l0,.13.38.33.18.18.18.11.05.05,0,.15h-.16l-.05-.05.07-.09-.09-.07a.32.32,0,0,1-.09-.09h-.07l-.05,0-.15,0-.07-.09-.09.07V12l.05.18.09.07,0,.05-.15.15-.16,0-.16.2-.09,0,0,.18-.05,0-.11-.18a.35.35,0,0,0-.07.18v.47l.13-.15.05-.11.11,0c0,.06,0,.12,0,.19s0,.13,0,.19,0,.17,0,.25,0,.16,0,.25l-.05.05.07,0h.18q0-.15.06-.31c0-.11,0-.21.06-.31l.11-.11a.28.28,0,0,0,.07-.15l0,.09.07,0,.07-.18v-.34l.13.36.05.07a1,1,0,0,0,0,.2v.89a1.23,1.23,0,0,0,0,.15.29.29,0,0,1,0,.13l-.13.15,0,.05a.56.56,0,0,1-.13.25.37.37,0,0,0-.09.26l-.05-.15-.11.07,0-.07-.22.24,0,.18-.11,0,.07-.33-.07,0V15l0-.05,0-.09,0,.05,0,.09L99,15a1.81,1.81,0,0,1,.06-.34,1.2,1.2,0,0,0,0-.34,1.12,1.12,0,0,1-.24.18l-.07.2,0,.05,0,.07-.11.29a.42.42,0,0,1-.07.24.39.39,0,0,0-.07.22v.18l.27.24.05.09a.56.56,0,0,1,0,.09.58.58,0,0,0,0,.09h-.27a.57.57,0,0,0-.17-.33.43.43,0,0,1-.14-.33,1.58,1.58,0,0,1-.12.2L98,16l-.16-.14v-.11a1.69,1.69,0,0,0,0-.17,1.46,1.46,0,0,1,0-.17,1,1,0,0,0-.08.23,1,1,0,0,1-.08.23l-.09.16a1.15,1.15,0,0,0-.1.27l-.06.27L97.3,17l-.08.33,0-.07a.52.52,0,0,1-.05-.24L97,17l0,.07,0-.18-.11-.18L97,14.68a1.2,1.2,0,0,1,0-.25,1.28,1.28,0,0,0,0-.25q0-.45-.08-.91t-.08-.91v-1a3,3,0,0,1,0-.33l-.07-1.81q0-.9,0-1.81V7l.09-.29A1,1,0,0,0,97,6.2l-.12-.1a.19.19,0,0,0-.14,0l0-.05L97,5.93l.16,0a.08.08,0,0,1,0,0,.08.08,0,0,0,0,0l-.2-.07L97,5.55l.07-.19.1-.25a2.44,2.44,0,0,1,.1-.23h.22L97.8,5a1.77,1.77,0,0,1,.6-.34l.65-.24.15-.09v.09h.29l-.13-.07.24-.05.22-.07.09,0,.05-.05a.08.08,0,0,1,0,0,.08.08,0,0,0,0,0,4,4,0,0,0,.84-.13,3.3,3.3,0,0,1,.84-.11l.32,0,.32.05.27.05h.07l.18.09,0,.07H103l.18.05a.81.81,0,0,1,.41.1,1.65,1.65,0,0,0,.35.15h.18a.51.51,0,0,0,.21.1,1,1,0,0,1,.23.08l.15.15.16.07,0,.09.33.31.2.27.09.18,0,.05v.16l.15-.05.07.18.16.09,0,.09-.09.16a3.5,3.5,0,0,0,.11.5,2.4,2.4,0,0,1,.09.5l-.15.27-.13,0-.11.13,0,.05-.09-.05,0,.11,0,.13-.3.25-.3.25a.28.28,0,0,1-.12,0,.17.17,0,0,0-.1,0l-.11.05a.78.78,0,0,1,.33-.2l.22-.17a1.17,1.17,0,0,0,.2-.19l0-.09-.3.24-.3.22a1.66,1.66,0,0,0-.38.16l.42-.33q.22-.16.42-.34l.13-.09-.09-.11.18,0-.09-.16a1.35,1.35,0,0,1-.4.53l-.62.49-.11.05-.16.1-.16.08-.32.1a1.68,1.68,0,0,0-.32.12l-.58.16a5.42,5.42,0,0,0-.58.18l0,.05-.05.09,0-.09,0-.05-.11,0-.18.11-.05.05-.07-.05-.18.05-.12.05-.12.05-.07.07h.16l.12-.06a.22.22,0,0,0,.1-.08h.07l.09.15h.42l-.07,0,.07.09a.45.45,0,0,1-.3.16.63.63,0,0,0-.32.13l-.16.24s0,0,0,0l.12.13h.07l.37.25.35.27.11.11.12.07a.3.3,0,0,0,.12.05.54.54,0,0,0,.15.08.19.19,0,0,1,.12.12q.34.31.7.58l.72.56a1.71,1.71,0,0,0,.26.22,1.82,1.82,0,0,1,.26.22,1.2,1.2,0,0,0,.21.25l.25.24.09.15,0,.05.42.38.07.15a2.63,2.63,0,0,0,.25.28,1.6,1.6,0,0,1,.23.28l0,.07-.2-.11-.14-.2-.05,0h-.24l0,.05.25.11-.18,0L106,15a.37.37,0,0,1,.1.15v.16l.09.05.15.14a.36.36,0,0,1,.12.15l.06.12a.37.37,0,0,0,.08.12l-.11-.09-.21-.23a1.27,1.27,0,0,0-.23-.21,1.81,1.81,0,0,0-.25-.27l-.29-.25a1.63,1.63,0,0,1-.35-.34,2.63,2.63,0,0,0-.33-.35,2,2,0,0,1-.29-.38l-.05,0-.16-.11,0-.07-.4-.33-.15-.35,0-.11a2.88,2.88,0,0,0,.45.4l0-.09-.45-.39q-.21-.19-.45-.37A1.28,1.28,0,0,0,103,12l-.45-.3-.1-.12a.39.39,0,0,0-.1-.1l-.18-.13-.13-.22,0-.05-.2.05-.14-.13-.05,0v-.07l-.05-.07-.07,0-.09-.05-.27-.15-.27-.15-.07.16.18.19.18.17-.2-.05-.09.14a1.12,1.12,0,0,1,.31.25l.05,0a1.4,1.4,0,0,0,.25.25,1.35,1.35,0,0,0,.3.18.7.7,0,0,1,.36.29.49.49,0,0,0,.13.09.24.24,0,0,1,.11.11l.11.07-.11.15-.13-.05,0,.07a1.37,1.37,0,0,0,.29.44l.11,0,.15.11-.15.05a1.89,1.89,0,0,1-.47-.45l-.07.07,0-.05-.24-.13-.05-.07-.05,0,0-.05,0,.05.09,0-.24-.27v-.07l-.17-.16-.17-.15a.82.82,0,0,0-.36.07l-.22-.31-.09-.09,0-.09-.11,0,.09-.09.16.22v.07l.16.09v.07l.11.07.18-.07,0-.07-.22-.11-.25-.31-.15-.13-.18-.07L100.4,11l0,.16a1.16,1.16,0,0,0-.19-.15,1.1,1.1,0,0,1-.19-.15h-.13a.08.08,0,0,1,0,0,.08.08,0,0,0,0,0h.07a1,1,0,0,0,.25.22,1.28,1.28,0,0,0,.25.19,1.23,1.23,0,0,1,.25.19l-.07.07.07.16.09,0q.36.36.75.69l.11.2.27.28a2.08,2.08,0,0,0,.27.25l0,.09.22,0,.07.09.07.27a.42.42,0,0,0,0,.08.42.42,0,0,1,0,.08l-.05-.07-.09.07.58.55,0-.11-.14-.18a1.41,1.41,0,0,0-.15-.18,1.31,1.31,0,0,0,.2.16l.22.13a.68.68,0,0,1,.31.38l-.11.13.09.2,0,.05,0,.07-.4-.27-.07.07h-.15l-.07-.14h.22l-.31-.31-.18,0-.13-.05v-.15l-.07-.09a.32.32,0,0,0-.09-.09l0-.07-.05-.05-.05.05Zm-5.09,0,0,.18v.07L97,14l0-.05.05-.18,0-.05L97,13.52Zm.73,2.4.05.05-.05.05,0-.05Zm.71-3.56-.05.15,0,.13,0-.13Zm0,2.69.09.2.09-.18v-.16l0-.2v-.16l0-.13-.09.16a.72.72,0,0,0-.11.27Zm.05-.87v.09l.11-.05Zm.15-9.7-.13.07h.09l.09-.09h-.05Zm-.05,7.39,0,.07v.07l0-.07Zm.15,2.25-.07.07v.07Zm.2-10,0,.05-.05,0a.07.07,0,0,1,0,0A.07.07,0,0,0,98.82,4.43Zm.36,10.9a.66.66,0,0,1,0,.11.66.66,0,0,0,0,.11l-.07.05a.63.63,0,0,0,0-.09.52.52,0,0,1,0-.09Zm.13-1.91,0,.07h.07Zm.11,2.34a.07.07,0,0,1-.07,0Zm.05-.31.05.07-.05,0Zm.11-3v.18l-.05-.09Zm0,1,0,.09,0,.07,0-.09Zm.82-3.4v.09l.07-.05h.11a.2.2,0,0,0,0-.06.2.2,0,0,1,0-.06l.25-.1.25-.12a4,4,0,0,0,.82-.42,6.49,6.49,0,0,1,.8-.45l.25-.18.26-.18V8.36l0-.05.09-.15,0-.07a.37.37,0,0,0,0-.12V7.76l-.17-.34a3.33,3.33,0,0,1-.15-.34.6.6,0,0,1-.38-.21,1,1,0,0,0-.34-.26l-.71-.24a2.72,2.72,0,0,0-.78-.17l-.8-.08h-.24a.71.71,0,0,0,.2.53v.18L99.91,7l0,.09.11.16.07,0,.18,0-.05.11a.27.27,0,0,0,0,.07.33.33,0,0,1,0,.07,0,0,0,0,0,0,0,0,0,0,0,1,0,0h.13l.06.08.06.08h.05l.05.07a.51.51,0,0,1,0,.1.51.51,0,0,0,0,.1l.11.24h-.07l-.2.25h-.11l-.29-.07L100,8.47l-.16.07-.07-.11-.07-.09-.07.18-.05.25a.62.62,0,0,1,.15.16,1,1,0,0,1,.09.2l.33.18.08.1a.16.16,0,0,1,0,.12v.11l.22.24-.33-.18H100l.07.13h-.16l.22.24.15.05Zm-.73.6-.07,0,.07.05Zm.16-6.49-.05,0-.07,0Zm0,6-.07,0,.07.07Zm0-.29-.07.05.07,0Zm0-1.13.09.07v.15l-.11-.13a.07.07,0,0,1,0,0A.07.07,0,0,0,99.8,8.7ZM99.89,10l-.05,0,0,.05a.07.07,0,0,1,0,0A.07.07,0,0,0,99.89,10Zm0,.13,0,.07,0,.07H100a.07.07,0,0,1,0,0,.07.07,0,0,0,0,0Zm.07,3.63v.07l-.09,0Zm0-3.72-.05.05.14.11a.08.08,0,0,1,0,0,.08.08,0,0,0,0,0Zm.18-5.92-.07-.05,0,.05Zm0,7.83h.15l.15.15-.07,0Zm.22-5.63-.07.14a.56.56,0,0,1-.09.12V6.5l.07-.13Zm-.05,5.36.05.07-.05,0-.07,0Zm.11-1.22-.05.07,0,.07h.07a.08.08,0,0,0,0,0,.08.08,0,0,1,0,0Zm0,.64.16.11-.07.09-.11-.15Zm.05.33,0,.09.05.07.07-.07Zm0,.71.07.05-.07.05Zm.16-3.52.11.14h-.13V8.7a.08.08,0,0,1,0,0A.08.08,0,0,0,100.66,8.63Zm.13,2.22-.05-.13h-.09ZM100.66,12a.57.57,0,0,0,.44.44.07.07,0,0,0,0,0,.07.07,0,0,1,0,0,.87.87,0,0,0-.21-.18A1.1,1.1,0,0,1,100.66,12Zm.13-7.89.07,0h-.16Zm0,6s0,0,.05,0Zm.38-5.83h-.36a.45.45,0,0,0,.2,0Zm-.27,6.56-.07.05.07,0ZM101,4l0,.05,0,.07Zm0,6.21,0,.07s.05,0,.05,0a0,0,0,0,1,0,0Zm0,.4h.07l.2.22-.2-.13Zm.09-.31.05.07h.05Zm.05,1.62,0,.07h-.09ZM101.18,4l-.05.05.05.07Zm-.05,8.47.09.07h.07l-.05-.07Zm.14-1.49,0,.09.15.11-.09.05,0-.05-.07-.05,0-.05Zm.18-6.76-.07.05.05.07.05-.07Zm0,6.7.05.05,0,.09-.09-.09Zm0,1.13.09.05-.07,0Zm0,.73.12.12a.54.54,0,0,1,.1.14l.13.14.13.12v-.13Zm0,.44.27.24a.47.47,0,0,0,.09.13l.11.11v.07l-.11,0-.08-.06-.08-.06v-.09l-.11,0a.44.44,0,0,1,0-.15A.3.3,0,0,0,101.47,13.23Zm.11-2.23.05.09-.07.05a.25.25,0,0,1,0-.09A.13.13,0,0,0,101.58,11Zm.11.47.07.09-.05.07-.09-.07Zm.09-.29,0,.07,0,.09-.05-.09Zm0,.82,0,.05,0,.07Zm.4-7.92-.07.07.07.05.05-.05Zm0,8.92,0,.07.07.05,0,.05-.13-.11Zm.07,1,0-.07-.07.07.09.07.05.07.05-.05Zm-.07-2.38.15.11-.07,0Zm.16-7.43-.05.05.05,0Zm.05,8.85,0,.09.09.05-.05.05-.18-.13Zm.05-3.43,0-.05h.22l0,.09.18-.07h.29a.89.89,0,0,1-.25.1l-.27.06-.11-.09-.18,0Zm.05,2.94.13.13-.05.07-.13-.09Zm0,.2.09.09-.07.05-.09,0Zm0-8.5.18,0,.18.05.18,0,.18.07.18.07.15.09.14.05H104a3,3,0,0,0-1.31-.42l-.07,0Zm.05,5.16.05.05-.05,0Zm.05,2.8.11.05-.11.09-.05-.09Zm-.05.2.09.11-.09,0Zm0,.84.11.05-.09.09a.3.3,0,0,0,0-.07A.28.28,0,0,1,102.6,13.19Zm.05,1.25,0,.11,0,.05-.07-.07Zm.05-4.71.07.09-.09,0-.05,0ZM104,9l-.16.11-.05,0,.05.07-.23,0-.23,0-.25.05-.27,0h-.16a4.4,4.4,0,0,1,.49-.14,2.43,2.43,0,0,0,.47-.16l.17,0Zm-1.29-.15V8.9l0,.07.05-.07Zm0,4.54.11.11-.13.14v-.12A.56.56,0,0,1,102.71,13.37Zm0-1.34.18.2,0,.09-.07-.13-.07-.07Zm0,.49,0,.05.09,0,.05.13.05,0-.05.07-.13-.2-.07,0Zm.13-.13,0,.09,0,.05-.05-.05Zm.09,1.22,0,.05-.16,0Zm-.07-.74,0,.11.18.09.09.07-.07.07-.05-.09-.24-.16Zm0,2L103,15l-.09.07,0-.07Zm0-1.13.05.07,0,.05-.05-.05Zm0-9.3,0,.09,0,.07.05-.07Zm0,8.87.12.1a.32.32,0,0,1,.1.12.45.45,0,0,0-.14-.09A.13.13,0,0,1,102.95,13.32Zm0-.2.18.16-.05,0-.13-.11Zm.05,1.34,0,.05.13.07,0-.11-.11-.11Zm.09-.76.07.07-.07.07-.05-.07Zm0-1.31.07.09-.07.05,0-.05Zm0,1.56.05.07h-.09Zm0-1.07.11.11.05,0h-.09l-.07,0Zm.13-8.27-.07-.05,0,.05Zm0,8.76,0,.07h-.11Zm-.05.65.07.09.11-.14,0,.07.13.06a.22.22,0,0,1,.11.08l-.05,0-.24-.09,0,.07-.09,0-.05-.07Zm.09-5.2-.05,0,0,.05a0,0,0,0,1,0,0,0,0,0,0,0,0,0l.05,0Zm.13-4.18-.05,0-.09,0,.05.05Zm-.15,7.76.22.18-.16.07a.56.56,0,0,1,0-.14A.21.21,0,0,0,103.27,12.41Zm.05.84.16.15-.15,0-.05-.05Zm0,.47,0,.07a.09.09,0,0,1,0,0,.08.08,0,0,0,0,0l-.07-.07Zm0-.65.09.07-.09.07-.05-.07Zm0-4.6-.05.05,0,.07.05-.07Zm0,6.83.24.11.14-.07v.12a.37.37,0,0,0,0,.12l-.29-.16A.47.47,0,0,1,103.36,15.3Zm.16-1.65v.09l-.15-.07h.15Zm-.13.22a.23.23,0,0,1,.1-.05.11.11,0,0,0,.08-.07l.07.09,0,.11.05.05,0,.09-.2-.05Zm0-5.47.2-.07.07-.13Zm0,5.87.13.05-.11,0Zm.05.42.15.09-.16.07,0-.09Zm.09-2,.05.11-.11.07,0-.07-.07,0Zm-.09,2.42.13.07h-.13Zm0,.44,0,.05-.05,0Zm0-10.83a1,1,0,0,0,.33.16h.13l-.15-.07Zm.15,10.48.09.05-.07.07-.13-.09Zm0-1.84.09.15-.05,0,0-.05-.07-.07Zm0,.24.05.07-.07.05a0,0,0,0,0,0,0,0,0,0,0,1,0,0Zm.13,1.05-.09,0a.2.2,0,0,1,0-.09Zm-.07.31.09.09,0,.05Zm.18-.73-.13,0,0-.11Zm-.11.47.09,0,.05,0,0,.09,0,.07-.09-.09-.07,0Zm.2-.44-.07.05-.09,0Zm-.16.85.07.05-.05,0Zm.07-1.51.15.13-.05.05-.09-.05,0-.05ZM104.16,9l-.13.07H104ZM104,15.23l.05.07.13.05-.09,0-.07,0-.07-.07Zm0-1.14.07.09-.05.05,0-.07Zm.07,0,0-.18.07-.07.22.2-.05.07-.16-.09Zm0-9.39.2.07V4.71Zm.18.33-.09,0,.11.09.05,0Zm0,10.45.09.09-.05.05-.11-.07Zm0-7.36-.09.05.09,0Zm-.05,5.2,0,.05,0,.09Zm.09-8.54-.05,0,0,.07Zm0,1.33-.07.07.05,0a0,0,0,0,1,0,0A.18.18,0,0,0,104.42,6.11Zm0,8,.05.07,0,.07-.05-.09Zm.05-7.92,0,.07.05.05.07-.05Zm.11.22,0,.05.05.09Zm0,2.54a1.26,1.26,0,0,0,.33-.19,1.18,1.18,0,0,1,.34-.19l-.53.38.07.09-.13,0Zm0,4.36,0,.05,0,.09Zm.05,1.44.13.05.13.13-.05.05-.11-.15h-.13Zm.09-9.7h-.07l0,.05.07,0,.09,0Zm0,9.32.15.16.11.07h-.11l-.05,0-.11-.11a.07.07,0,0,1,0,0A.07.07,0,0,0,104.67,14.39Zm.27-7v.13l-.11.11a.75.75,0,0,0-.15.35l0,.05.11,0,.09-.18.05-.05,0-.36Zm-.13-1.85-.09,0,.09.05ZM105,7.81a2.06,2.06,0,0,0-.24.4l.09-.07a.47.47,0,0,1,.09-.1.15.15,0,0,0,.05-.12Zm-.14-1.33-.07.09.09.05,0-.05Zm.07.56-.05.05h.07Zm0-.42-.05,0,0,.05ZM105,15l.13.07-.09,0,.11.07-.11.09,0-.18ZM105,5.8l0,.07,0,.07.09-.07Zm.11,8.09-.09.05.13.18Zm.07-6.58,0,.05v.13a.4.4,0,0,1,0,.13l0-.05Zm0,1.13,0,.05,0,.05a0,0,0,0,0,0,0,0,0,0,0,1,0,0Zm.15-2-.07,0,.09.09Zm0,.65-.07.05.07,0Zm0,6.85-.05.07.09.05Zm-.05.4h.11l0-.15Zm.4-5.92-.29.16.14-.11ZM105.8,8l-.11.05a1.2,1.2,0,0,1-.25.2l.08-.1.08-.1.31-.24.22-.09a1.17,1.17,0,0,1-.13.23,1.18,1.18,0,0,0-.13.23h-.07a1,1,0,0,1-.16.14l-.16.12.09-.09a.59.59,0,0,1,.11-.17A1.15,1.15,0,0,0,105.8,8Zm-.22-.42,0,.07.05.05.07-.05Zm0,6.9,0,.09.07.05Zm.09-6.78-.07,0,.07.05Zm0,6.69-.05,0,.05.05Zm.13-7.72-.05,0,0,.05Zm.2,1.91,0,.13V8.61Zm.31,7.27.05,0-.07.05-.07-.07Zm.25-.67.09.07.09,0,.16.18-.22-.05,0-.09-.11-.05Zm.15.8.05.11h-.11Zm.29-.4.11.09-.09,0Zm.2.29.07.05-.05,0a.07.07,0,0,0,0,0A.07.07,0,0,1,107.22,15.84Z" transform="translate(-2.17 -2.29)"/><path d="M110.63,17.57l-.09-.36h-.09s0-.18,0-.45,0-.61,0-1,0-.78,0-1.19,0-.79,0-1.13l-.05-.15L109.09,12l.1,0,.08,0,.07.05.38.13a1.4,1.4,0,0,0,.4.07l.05,0s.07,0,.07,0l.07-.05-.14-.15.09-.07c0-.07,0-.12,0-.13l0-.18-.05-.09.05-.07s0,0-.07-.08a.2.2,0,0,0-.18-.08H110s-.07,0-.14-.11l-.22-.25-.22-.25-.14-.15-.33-.44a4.1,4.1,0,0,0-.49-.69l-1.74-3.69q0-.29-.09-.29h-.24l-.11-.11V5.23a1.07,1.07,0,0,0,.09-.18c0-.11.12-.16.2-.16V4.52a2.57,2.57,0,0,1,0-.44,2.37,2.37,0,0,1,.23-.53l.13-.22a1.08,1.08,0,0,0,.19-.16l.39-.36q.22-.2.44-.36a.66.66,0,0,1,.36-.16l.05,0,.07,0,.14.13a.49.49,0,0,0,.08.13.68.68,0,0,1,.1.16l2.54,4.67a5.56,5.56,0,0,1,.31.52q.13.25.2.25s0-.08,0-.09l.09-.45.05.15.74-1.24V6.47a.39.39,0,0,1,.09-.2L113,6l.18-.32a.6.6,0,0,0,.09-.27L114,4l.13-.15h.11q-.11.07-.11.15a.09.09,0,0,0,.07.06h.11l.25-.36h.07v.07s0,0,0,.1a.82.82,0,0,0,0,.12l0,.07.18-.07-.11.13a1.12,1.12,0,0,0-.07.23c0,.1,0,.16,0,.17v.07l.07-.07a.59.59,0,0,1,.09-.25,1.77,1.77,0,0,1,.18-.27l.07,0V4a.23.23,0,0,0-.05.12.62.62,0,0,0,0,.12s0,.05.07.05v.56s-.06.07-.1.2a1.39,1.39,0,0,0-.06.24V5.4l.42-.84a.65.65,0,0,0,.13-.24l0,.07-.09.22a1,1,0,0,0-.07.33v.13l.11,0,.11-.22a.31.31,0,0,1,0-.13l0-.05h.09l0-.2.24-.47v.13a.21.21,0,0,1,0,.09.22.22,0,0,0,0,.09v.14a.65.65,0,0,1,.13-.21.56.56,0,0,0,.13-.25h.11l-.07.25-.1.36c0,.15-.09.28-.14.42a.54.54,0,0,1-.13.24l-.22.6a1.3,1.3,0,0,1-.19.68,1.33,1.33,0,0,0-.19.7l-.11.15a.32.32,0,0,1-.09.24.26.26,0,0,0-.09.18v.16a.29.29,0,0,1,0,.09s-.06.07-.1.07h-.11s-.07.05-.07.16v.15a.81.81,0,0,1-.09.34c-.06.13-.09.18-.09.15V8.76l-.05.07a.32.32,0,0,0-.18.27l.05.2-.34.45v.18h-.13s-.08.07-.13.21l-.13.35v.15s0,0,.06-.08a.59.59,0,0,0,.12-.21v.07a1.94,1.94,0,0,1-.2.51,1.38,1.38,0,0,1-.27.34l-.07.07-.13.2,0,.09H113a.22.22,0,0,0-.05.16v.42a.81.81,0,0,0,0,.12.86.86,0,0,0,0,.14V14L113,13.9s0,0,0,.11,0,.1,0,.11v.07a1.29,1.29,0,0,1,0,.31l0,.2.07.07L113,15.84l-.11.07-.11.45v.53a1.61,1.61,0,0,1-.06.45,1.45,1.45,0,0,1-.12.31l0,.05v-.65l-.11-.07,0,.11-.05.11v.2a1.07,1.07,0,0,1-.05.29.39.39,0,0,0-.07-.13.27.27,0,0,0-.14-.07H112v-.09l.07,0a.43.43,0,0,1,0-.12.3.3,0,0,1,.06-.12.18.18,0,0,0,0-.13v-.09l-.18.34V17h-.18v.36a1.37,1.37,0,0,0-.1-.36,1,1,0,0,1-.08-.25V14.55l-.18-.29v.16a.43.43,0,0,0,0,.11.44.44,0,0,1,0,.11v.62l-.09.05-.09.4v-.18q-.13,0-.22.58l-.07.6a3.28,3.28,0,0,0,0,.7,1.8,1.8,0,0,1-.14.77,5.28,5.28,0,0,1-.13-1.2l-.11-.15Zm-2-6.32a.35.35,0,0,1,.25.11l.18.2v.25s0,0,0,0a.09.09,0,0,1-.08,0l0-.07s0-.1-.13-.18a.64.64,0,0,1-.13-.15l0-.11Zm.2-.75.07-.09a.58.58,0,0,1,0,.14S108.83,10.55,108.8,10.5Zm1,2.09s0,0,0,.11,0,.07,0,.07.05,0,.05-.07Zm.29-.71s0,0,0,.07,0,.07,0,.07-.05,0-.05-.07Zm.15,1.09c-.06,0-.09,0-.09,0Zm.47,1.29s-.05,0-.05.11a0,0,0,0,0,.05.05s.07,0,.07-.05Zm.36-.07a.06.06,0,0,0-.07.07c0,.06,0,.09.07.09s.05,0,.05-.09Zm.07.84v-.38l.11.13V14a1.58,1.58,0,0,0-.05.24l0,.2a.06.06,0,0,0-.05,0Zm.11,0s0,0,0,.11l0,.29a1,1,0,0,0,.05-.2.17.17,0,0,0,0-.07A.54.54,0,0,1,111.29,15Zm0,1s.05,0,.05.07,0,.11-.05.11,0,0,0-.11Zm0,.24s.05,0,.05.07,0,.07-.05.07,0,0,0-.07Zm.24-2.4-.09.05V14Zm0,1.87s0,0,0,.07,0,.07,0,.07-.05,0-.05-.07Zm.05,1.29s0,0,0,.07,0,.07,0,.07-.05,0-.05-.07Zm.33.44s0,0,0,.07,0,.09,0,.09-.05,0-.05-.09Zm.07-6s-.05,0-.05.07,0,.09.05.09a.11.11,0,0,0,.05-.09Zm0,2.42a0,0,0,0,0-.05.05s0,.07.05.07Zm0,.6s-.05,0-.05.07,0,.07.05.07.05,0,.05-.07Zm.05.82s0,0,0,.11,0,.07,0,.07a.06.06,0,0,0,.07-.07Zm.16-3.91s-.05.07-.05.22,0,.18.05.18a1,1,0,0,0,0-.2A.86.86,0,0,0,112.19,11.41Zm.07,3.09a.07.07,0,0,0,0,.15s0,0,0-.07Zm0-5.2v.07l.05-.07,0-.09Zm.05-.8s0,0,0,.13,0,.07,0,.07.05,0,.05-.07Zm0,6.45s0,0,0,.07,0,.07,0,.07.05,0,.05-.07Zm0-5.27a.78.78,0,0,0,.05-.18,0,0,0,0,0-.05-.05Zm.05,0s-.05,0-.05.07v.07l0,.11s0,.07,0,.07a.06.06,0,0,0,.07-.07.16.16,0,0,0-.05-.11s.05,0,.05-.07Zm0-1.27s0,0,0,.05a0,0,0,0,0,0,0s.07,0,.07,0Zm.22.22s-.07.09-.15.27l-.11.27.11.05V9.3a.34.34,0,0,0,.08-.15.64.64,0,0,0,0-.14h-.11ZM112.45,12s0,0,0,.05l0,.05Zm.15-1.69s0,0,0,0S112.57,10.41,112.59,10.36Zm0,.53s0,0,0,.07,0,.09,0,.09,0,0,0-.09Zm0,3.38h.07s0,0,0,0l0-.2Zm.18-5.9a.15.15,0,0,1-.09.05v.07Zm0-.65s-.05,0-.05.11a0,0,0,0,0,.05.05s0,0,0-.05ZM113,9.76l-.05.07-.09.12a.32.32,0,0,0-.07.14v.15Zm-.16-1.62.05,0V8Zm.05,2.43s-.05,0-.05.07,0,.11.05.11,0,0,0-.11Zm0,.25s-.05,0-.05.07a0,0,0,0,0,.05.05s0,0,0-.05Zm.18-.87L113,10s-.05.06-.08.18a.92.92,0,0,1,0,.16h.07a.66.66,0,0,1,.07-.21A.4.4,0,0,0,113.07,10Zm.36.13q-.13,0-.14.15l-.15.2a1.92,1.92,0,0,0-.19.44c0,.15-.06.22-.06.24v.33l.05,0s0,0,0-.09a.26.26,0,0,1,0-.15V11.1a.7.7,0,0,1,.07-.14.68.68,0,0,1,.16-.2Zm-.29-2.58-.07.11s-.07.08-.07.09v.07Zm-.07,1.94s-.05,0-.05.09,0,0,.05,0,.07,0,.07,0Zm0,.69s-.05,0-.05.07,0,0,.05,0,.07,0,.07,0Zm0,4a.07.07,0,0,1,0,.15s-.05,0-.05-.07Zm.07-2.8s.05,0,.05.09,0,.07-.05.07,0,0,0-.07Zm.09-4s-.05,0-.05.07a0,0,0,0,0,.05.05s0,0,0-.05Zm0,2.47s-.05,0-.05.07,0,.11.05.11,0,0,0-.11Zm.05,1.07s-.05,0-.05.07a0,0,0,0,0,.05.05s0,0,0-.05Zm0-2.56a.24.24,0,0,1,0,.09l0,.07.13-.16Zm.29-1.8a.59.59,0,0,0-.13.26.64.64,0,0,1-.16.3V7.1a.75.75,0,0,0,.18-.29A1.52,1.52,0,0,0,113.61,6.47Zm-.18,2.83s-.07,0-.07.11,0,0,.07,0,.05,0,.05,0Zm.13.35-.05.11a.11.11,0,0,0,0,.07V9.9a.47.47,0,0,1,.07-.13.27.27,0,0,0,.05-.09Zm0-.64s-.05,0-.05.09a0,0,0,0,0,.05.05s0,0,0-.05Zm.05-1.38s-.05,0-.05.07,0,.07.05.07,0,0,0-.07Zm.07-1.42s-.05,0-.05.07,0,.11.05.11.05,0,.05-.11Zm0,1.89s-.05,0-.05.07,0,.09.05.09.05,0,.05-.09Zm.05,1.18a.63.63,0,0,1-.11.16A.17.17,0,0,0,113.74,9.28Zm.05.76,0,.09,0,.09h-.09A.17.17,0,0,1,113.79,10Zm0-2.27s0,0,0,.09,0,.07,0,.07.05,0,.05-.07ZM114,5.32a.27.27,0,0,1-.11.17.27.27,0,0,0-.11.19h.09l.36-.36Zm-.13.44s-.05,0-.05.11,0,0,.05,0,0,0,0,0Zm0,1.87s-.05,0-.05.07,0,.07.05.07,0,0,0-.07ZM114,6.8s-.07,0-.07.09,0,.11.07.11,0,0,0-.11ZM114,8.63l-.05.05a.23.23,0,0,0-.07.16v.09A.42.42,0,0,0,114,8.63Zm0-4.54s0,0,0,.11,0,.07,0,.07.05,0,.05-.07Zm0,3.27s0,0,0,.07,0,.07,0,.07.05,0,.05-.07Zm.24-2.42c-.07,0-.11.08-.11.09Zm.09,1.67s0,0,0,.09,0,.05,0,.05a0,0,0,0,0,.05-.05Zm.24-2.42-.14.13-.09.34a.12.12,0,0,1,.09,0l.09-.24Zm.22,1.36-.05,0S114.77,5.61,114.81,5.56Zm.13.58c-.06,0-.09,0-.09.07ZM115,7s-.05,0-.05.07,0,.11.05.11,0,0,0-.11Zm.15-1.54a.1.1,0,0,0,0,.07l-.11.13s0,.06,0,.15S115,6,115,6a.56.56,0,0,1,.1-.12.33.33,0,0,0,.08-.25Zm0,.65s-.05,0-.05.07,0,.07.05.07.05,0,.05-.07Zm0-2.47s.05,0,.05,0S115.17,3.72,115.14,3.67Zm.05.25s.05,0,.05,0A0,0,0,0,1,115.19,3.92Zm.07-.4s0,0,0,0S115.22,3.55,115.26,3.53ZM115.48,5c-.06,0-.09,0-.1.1s0,.13,0,.19Zm0-.22s0,0,0,.07,0,.05,0,.05.09,0,.09-.05Zm.27,0-.05,0,0,.05c-.06,0-.09,0-.09.14h.09Z" transform="translate(-2.17 -2.29)"/></svg>